RobotoDelta-XOPQmin-YOPQmin-XTRAmin.ufo
<glyph name="exclam" format="1">
  <advance width="476"/>
  <unicode hex="0021"/>
  <outline>
    <contour>
      <point x="186" y="53" type="qcurve" smooth="yes"/>
      <point x="186" y="22"/>
      <point x="213" y="-22"/>
      <point x="238" y="-22" type="qcurve" smooth="yes"/>
      <point x="263" y="-22"/>
      <point x="290" y="22"/>
      <point x="290" y="53" type="qcurve" smooth="yes"/>
      <point x="290" y="84"/>
      <point x="263" y="128"/>
      <point x="238" y="128" type="qcurve" smooth="yes"/>
      <point x="213" y="128"/>
      <point x="186" y="84"/>
    </contour>
    <contour>
      <point x="216" y="380" type="line"/>
      <point x="260" y="380" type="line"/>
      <point x="265" y="1456" type="line"/>
      <point x="211" y="1456" type="line"/>
    </contour>
  </outline>
</glyph>
<glyph name="numbersign" format="1">
  <advance width="1202"/>
  <unicode hex="0023"/>
  <outline>
    <contour>
      <point x="274" y="-20" type="line"/>
      <point x="328" y="-20" type="line"/>
      <point x="675" y="1476" type="line"/>
      <point x="621" y="1476" type="line"/>
    </contour>
    <contour>
      <point x="528" y="-20" type="line"/>
      <point x="582" y="-20" type="line"/>
      <point x="928" y="1476" type="line"/>
      <point x="874" y="1476" type="line"/>
    </contour>
    <contour>
      <point x="160" y="458" type="line"/>
      <point x="986" y="458" type="line"/>
      <point x="986" y="512" type="line"/>
      <point x="160" y="512" type="line"/>
    </contour>
    <contour>
      <point x="217" y="944" type="line"/>
      <point x="1042" y="944" type="line"/>
      <point x="1042" y="998" type="line"/>
      <point x="217" y="998" type="line"/>
    </contour>
  </outline>
</glyph>
<glyph name="quotesingle" format="1">
  <advance width="280"/>
  <unicode hex="0027"/>
  <outline>
    <contour>
      <point x="110" y="1162" type="line"/>
      <point x="170" y="1162" type="line"/>
      <point x="180" y="1374" type="line"/>
      <point x="180" y="1456" type="line"/>
      <point x="100" y="1456" type="line"/>
      <point x="100" y="1374" type="line"/>
    </contour>
  </outline>
</glyph>
<glyph name="plus" format="1">
  <advance width="1170"/>
  <unicode hex="002B"/>
  <outline>
    <contour>
      <point x="274" y="649" type="line"/>
      <point x="896" y="649" type="line"/>
      <point x="896" y="699" type="line"/>
      <point x="274" y="699" type="line"/>
    </contour>
    <contour>
      <point x="558" y="244" type="line"/>
      <point x="612" y="244" type="line"/>
      <point x="612" y="1104" type="line"/>
      <point x="558" y="1104" type="line"/>
    </contour>
  </outline>
</glyph>
<glyph name="two" format="1">
  <advance width="950"/>
  <unicode hex="0032"/>
  <outline>
    <contour>
      <point x="255" y="0" type="line"/>
      <point x="695" y="0" type="line"/>
      <point x="695" y="50" type="line"/>
      <point x="281" y="50" type="line"/>
      <point x="575" y="721" type="line" smooth="yes"/>
      <point x="646" y="892"/>
      <point x="680" y="1048"/>
      <point x="680" y="1140" type="qcurve" smooth="yes"/>
      <point x="680" y="1301"/>
      <point x="576" y="1486"/>
      <point x="481" y="1486" type="qcurve" smooth="yes"/>
      <point x="386" y="1486"/>
      <point x="261" y="1257"/>
      <point x="261" y="1030" type="qcurve" smooth="yes"/>
      <point x="261" y="1020" type="line"/>
      <point x="316" y="1020" type="line"/>
      <point x="316" y="1030" type="line" smooth="yes"/>
      <point x="316" y="1249"/>
      <point x="412" y="1436"/>
      <point x="481" y="1436" type="qcurve" smooth="yes"/>
      <point x="550" y="1436"/>
      <point x="625" y="1280"/>
      <point x="625" y="1130" type="qcurve" smooth="yes"/>
      <point x="625" y="1032"/>
      <point x="565" y="857"/>
      <point x="522" y="738" type="qcurve" smooth="yes"/>
      <point x="255" y="50" type="line"/>
    </contour>
  </outline>
</glyph>
<glyph name="three" format="1">
  <advance width="950"/>
  <unicode hex="0033"/>
  <outline>
    <contour>
      <point x="227" y="380" type="line" smooth="yes"/>
      <point x="227" y="200"/>
      <point x="354" y="-30"/>
      <point x="454" y="-30" type="qcurve" smooth="yes"/>
      <point x="553" y="-30"/>
      <point x="678" y="200"/>
      <point x="678" y="400" type="qcurve" smooth="yes"/>
      <point x="678" y="540"/>
      <point x="575" y="728"/>
      <point x="494" y="758" type="qcurve"/>
      <point x="494" y="762" type="line"/>
      <point x="575" y="814"/>
      <point x="640" y="990"/>
      <point x="640" y="1100" type="qcurve" smooth="yes"/>
      <point x="640" y="1270"/>
      <point x="539" y="1486"/>
      <point x="454" y="1486" type="qcurve" smooth="yes"/>
      <point x="368" y="1486"/>
      <point x="257" y="1270"/>
      <point x="257" y="1100" type="qcurve" smooth="yes"/>
      <point x="257" y="1090" type="line"/>
      <point x="311" y="1090" type="line"/>
      <point x="311" y="1100" type="line" smooth="yes"/>
      <point x="311" y="1260"/>
      <point x="393" y="1436"/>
      <point x="454" y="1436" type="qcurve" smooth="yes"/>
      <point x="512" y="1436"/>
      <point x="586" y="1260"/>
      <point x="586" y="1100" type="qcurve" smooth="yes"/>
      <point x="586" y="960"/>
      <point x="500" y="786"/>
      <point x="418" y="786" type="qcurve" smooth="yes"/>
      <point x="339" y="786" type="line"/>
      <point x="339" y="732" type="line"/>
      <point x="425" y="732" type="line" smooth="yes"/>
      <point x="506" y="732"/>
      <point x="623" y="560"/>
      <point x="623" y="400" type="qcurve" smooth="yes"/>
      <point x="623" y="210"/>
      <point x="531" y="20"/>
      <point x="454" y="20" type="qcurve" smooth="yes"/>
      <point x="376" y="20"/>
      <point x="281" y="210"/>
      <point x="281" y="380" type="qcurve" smooth="yes"/>
      <point x="281" y="390" type="line"/>
      <point x="227" y="390" type="line"/>
    </contour>
  </outline>
</glyph>
<glyph name="four" format="1">
  <advance width="950"/>
  <unicode hex="0034"/>
  <outline>
    <contour>
      <point x="576" y="0" type="line"/>
      <point x="631" y="0" type="line"/>
      <point x="631" y="1456" type="line"/>
      <point x="620" y="1456" type="line"/>
      <point x="155" y="436" type="line"/>
      <point x="155" y="370" type="line"/>
      <point x="780" y="370" type="line"/>
      <point x="780" y="420" type="line"/>
      <point x="624" y="420" type="line"/>
      <point x="628" y="420" type="line"/>
      <point x="191" y="420" type="line"/>
      <point x="570" y="1182" type="line"/>
      <point x="576" y="1182" type="line"/>
      <point x="576" y="400" type="line"/>
      <point x="576" y="390" type="line"/>
    </contour>
  </outline>
</glyph>
<glyph name="six" format="1">
  <advance width="950"/>
  <unicode hex="0036"/>
  <outline>
    <contour>
      <point x="237" y="614" type="line" smooth="yes"/>
      <point x="237" y="274"/>
      <point x="385" y="-30"/>
      <point x="487" y="-30" type="qcurve" smooth="yes"/>
      <point x="590" y="-30"/>
      <point x="714" y="244"/>
      <point x="714" y="464" type="qcurve" smooth="yes"/>
      <point x="714" y="666"/>
      <point x="592" y="916"/>
      <point x="487" y="916" type="qcurve" smooth="yes"/>
      <point x="395" y="916"/>
      <point x="256" y="660"/>
      <point x="256" y="464" type="qcurve"/>
      <point x="286" y="464" type="line"/>
      <point x="286" y="630"/>
      <point x="408" y="866"/>
      <point x="487" y="866" type="qcurve" smooth="yes"/>
      <point x="569" y="866"/>
      <point x="660" y="657"/>
      <point x="660" y="464" type="qcurve" smooth="yes"/>
      <point x="660" y="253"/>
      <point x="569" y="20"/>
      <point x="487" y="20" type="qcurve" smooth="yes"/>
      <point x="403" y="20"/>
      <point x="292" y="285"/>
      <point x="292" y="604" type="qcurve" smooth="yes"/>
      <point x="292" y="654" type="line" smooth="yes"/>
      <point x="292" y="1020"/>
      <point x="459" y="1436"/>
      <point x="597" y="1436" type="qcurve" smooth="yes"/>
      <point x="612" y="1436" type="line"/>
      <point x="612" y="1486" type="line"/>
      <point x="597" y="1486" type="line" smooth="yes"/>
      <point x="432" y="1486"/>
      <point x="237" y="1030"/>
      <point x="237" y="644" type="qcurve" smooth="yes"/>
    </contour>
  </outline>
</glyph>
<glyph name="eight" format="1">
  <advance width="950"/>
  <unicode hex="0038"/>
  <outline>
    <contour>
      <point x="252" y="376" type="qcurve" smooth="yes"/>
      <point x="252" y="183"/>
      <point x="373" y="-30"/>
      <point x="475" y="-30" type="qcurve" smooth="yes"/>
      <point x="577" y="-30"/>
      <point x="697" y="183"/>
      <point x="697" y="376" type="qcurve" smooth="yes"/>
      <point x="697" y="510"/>
      <point x="618" y="701"/>
      <point x="540" y="743" type="qcurve"/>
      <point x="540" y="747" type="line"/>
      <point x="603" y="789"/>
      <point x="666" y="973"/>
      <point x="666" y="1097" type="qcurve" smooth="yes"/>
      <point x="666" y="1272"/>
      <point x="563" y="1486"/>
      <point x="475" y="1486" type="qcurve" smooth="yes"/>
      <point x="387" y="1486"/>
      <point x="284" y="1272"/>
      <point x="284" y="1097" type="qcurve" smooth="yes"/>
      <point x="284" y="973"/>
      <point x="346" y="789"/>
      <point x="410" y="747" type="qcurve"/>
      <point x="410" y="743" type="line"/>
      <point x="332" y="701"/>
      <point x="252" y="510"/>
    </contour>
    <contour>
      <point x="308" y="376" type="qcurve" smooth="yes"/>
      <point x="308" y="528"/>
      <point x="389" y="720"/>
      <point x="475" y="720" type="qcurve" smooth="yes"/>
      <point x="560" y="720"/>
      <point x="641" y="528"/>
      <point x="641" y="376" type="qcurve" smooth="yes"/>
      <point x="641" y="216"/>
      <point x="560" y="20"/>
      <point x="475" y="20" type="qcurve" smooth="yes"/>
      <point x="389" y="20"/>
      <point x="308" y="216"/>
    </contour>
    <contour>
      <point x="338" y="1097" type="qcurve" smooth="yes"/>
      <point x="338" y="1246"/>
      <point x="404" y="1436"/>
      <point x="475" y="1436" type="qcurve" smooth="yes"/>
      <point x="545" y="1436"/>
      <point x="612" y="1246"/>
      <point x="612" y="1097" type="qcurve" smooth="yes"/>
      <point x="612" y="956"/>
      <point x="545" y="770"/>
      <point x="475" y="770" type="qcurve" smooth="yes"/>
      <point x="404" y="770"/>
      <point x="338" y="956"/>
    </contour>
  </outline>
</glyph>
<glyph name="greater" format="1">
  <advance width="966"/>
  <unicode hex="003E"/>
  <outline>
    <contour>
      <point x="180" y="261" type="line"/>
      <point x="794" y="644" type="line"/>
      <point x="794" y="704" type="line"/>
      <point x="180" y="1087" type="line"/>
      <point x="180" y="1027" type="line"/>
      <point x="771" y="674" type="line"/>
      <point x="180" y="321" type="line"/>
    </contour>
  </outline>
</glyph>
<glyph name="question" format="1">
  <advance width="708"/>
  <unicode hex="003F"/>
  <outline>
    <contour>
      <point x="250" y="53" type="qcurve" smooth="yes"/>
      <point x="250" y="22"/>
      <point x="277" y="-22"/>
      <point x="302" y="-22" type="qcurve" smooth="yes"/>
      <point x="327" y="-22"/>
      <point x="354" y="22"/>
      <point x="354" y="53" type="qcurve" smooth="yes"/>
      <point x="354" y="84"/>
      <point x="327" y="128"/>
      <point x="302" y="128" type="qcurve" smooth="yes"/>
      <point x="277" y="128"/>
      <point x="250" y="84"/>
    </contour>
    <contour>
      <point x="156" y="1095" type="line"/>
      <point x="211" y="1095" type="line"/>
      <point x="211" y="1115" type="line" smooth="yes"/>
      <point x="211" y="1272"/>
      <point x="274" y="1426"/>
      <point x="334" y="1426" type="qcurve" smooth="yes"/>
      <point x="393" y="1426"/>
      <point x="452" y="1279"/>
      <point x="452" y="1150" type="qcurve" smooth="yes"/>
      <point x="452" y="1029"/>
      <point x="425" y="876"/>
      <point x="375" y="789" type="qcurve" smooth="yes"/>
      <point x="317" y="684"/>
      <point x="272" y="528"/>
      <point x="272" y="420" type="qcurve" smooth="yes"/>
      <point x="272" y="410" type="line"/>
      <point x="327" y="410" type="line"/>
      <point x="327" y="420" type="line" smooth="yes"/>
      <point x="327" y="496"/>
      <point x="351" y="658"/>
      <point x="398" y="744" type="qcurve" smooth="yes"/>
      <point x="460" y="844"/>
      <point x="507" y="1004"/>
      <point x="507" y="1150" type="qcurve" smooth="yes"/>
      <point x="507" y="1304"/>
      <point x="414" y="1476"/>
      <point x="334" y="1476" type="qcurve" smooth="yes"/>
      <point x="251" y="1476"/>
      <point x="156" y="1294"/>
      <point x="156" y="1115" type="qcurve" smooth="yes"/>
    </contour>
  </outline>
</glyph>
<glyph name="at" format="1">
  <advance width="1378"/>
  <unicode hex="0040"/>
  <outline>
    <contour>
      <point x="474" y="400" type="qcurve" smooth="yes"/>
      <point x="474.0" y="220.0"/>
      <point x="556.829694323144" y="0.0"/>
      <point x="627" y="0" type="qcurve" smooth="yes"/>
      <point x="677" y="0"/>
      <point x="754" y="103"/>
      <point x="769" y="190" type="qcurve"/>
      <point x="789" y="101"/>
      <point x="896" y="0"/>
      <point x="977" y="0" type="qcurve" smooth="yes"/>
      <point x="1097" y="0"/>
      <point x="1264" y="360"/>
      <point x="1264" y="650" type="qcurve" smooth="yes"/>
      <point x="1264" y="1000"/>
      <point x="974" y="1486"/>
      <point x="722" y="1486" type="qcurve" smooth="yes"/>
      <point x="466" y="1486"/>
      <point x="114" y="880"/>
      <point x="114" y="460" type="qcurve" smooth="yes"/>
      <point x="114" y="40"/>
      <point x="421" y="-446"/>
      <point x="647" y="-446" type="qcurve" smooth="yes"/>
      <point x="752" y="-446"/>
      <point x="894" y="-400"/>
      <point x="947" y="-356" type="qcurve"/>
      <point x="947" y="-306" type="line"/>
      <point x="897" y="-342"/>
      <point x="752" y="-396"/>
      <point x="647" y="-396" type="qcurve" smooth="yes"/>
      <point x="441.7142857142858" y="-396.0"/>
      <point x="168.0" y="49.0"/>
      <point x="168" y="460" type="qcurve" smooth="yes"/>
      <point x="168.0" y="864.0"/>
      <point x="486.54999999999995" y="1436.0"/>
      <point x="722" y="1436" type="qcurve" smooth="yes"/>
      <point x="955.6312849162011" y="1436.0"/>
      <point x="1214.0" y="962.0"/>
      <point x="1214" y="650" type="qcurve" smooth="yes"/>
      <point x="1214.0" y="382.0"/>
      <point x="1090.5729166666667" y="50.0"/>
      <point x="992" y="50" type="qcurve" smooth="yes"/>
      <point x="913.3103448275863" y="50.0"/>
      <point x="803.9713688923348" y="180.61039844257238"/>
      <point x="832" y="350" type="qcurve" smooth="yes"/>
      <point x="922" y="946" type="line"/>
      <point x="897" y="946" type="line"/>
      <point x="882" y="978"/>
      <point x="804" y="1052"/>
      <point x="762" y="1052" type="qcurve" smooth="yes"/>
      <point x="638.1428571428571" y="1052.0"/>
      <point x="474.0" y="680.0"/>
    </contour>
    <contour>
      <point x="528" y="400" type="qcurve" smooth="yes"/>
      <point x="528.0" y="659.0"/>
      <point x="661.1639344262295" y="1002.0"/>
      <point x="763" y="1002" type="qcurve" smooth="yes"/>
      <point x="792" y="1002"/>
      <point x="854" y="965"/>
      <point x="872" y="940" type="qcurve"/>
      <point x="782" y="390" type="line" smooth="yes"/>
      <point x="749" y="204"/>
      <point x="677" y="50"/>
      <point x="624" y="50" type="qcurve" smooth="yes"/>
      <point x="577.5483870967743" y="50.0"/>
      <point x="528.0" y="228.0"/>
    </contour>
  </outline>
</glyph>
<glyph name="A" format="1">
  <advance width="683"/>
  <unicode hex="0041"/>
  <outline>
    <contour>
      <point x="0" y="0" type="line"/>
      <point x="54" y="0" type="line"/>
      <point x="311" y="1288" type="line" smooth="yes"/>
      <point x="317" y="1320"/>
      <point x="331" y="1383"/>
      <point x="336" y="1416" type="qcurve"/>
      <point x="342" y="1416" type="line"/>
      <point x="347" y="1383"/>
      <point x="361" y="1320"/>
      <point x="367" y="1288" type="qcurve" smooth="yes"/>
      <point x="625" y="0" type="line"/>
      <point x="683" y="0" type="line"/>
      <point x="383" y="1466" type="line"/>
      <point x="298" y="1466" type="line"/>
    </contour>
    <contour>
      <point x="115" y="440" type="line"/>
      <point x="565" y="440" type="line"/>
      <point x="555" y="490" type="line"/>
      <point x="125" y="490" type="line"/>
    </contour>
  </outline>
</glyph>
<glyph name="D" format="1">
  <advance width="833"/>
  <unicode hex="0044"/>
  <outline>
    <contour>
      <point x="170" y="0" type="line"/>
      <point x="344" y="0" type="line" smooth="yes"/>
      <point x="513.5598377281947" y="0"/>
      <point x="718" y="366.0"/>
      <point x="718" y="682" type="qcurve" smooth="yes"/>
      <point x="718" y="774" type="line" smooth="yes"/>
      <point x="718" y="1090.0"/>
      <point x="513.5598377281947" y="1456"/>
      <point x="344" y="1456" type="qcurve" smooth="yes"/>
      <point x="170" y="1456" type="line"/>
    </contour>
    <contour>
      <point x="224" y="50" type="line"/>
      <point x="224" y="1406" type="line"/>
      <point x="344" y="1406" type="line" smooth="yes"/>
      <point x="490.1638795986622" y="1406"/>
      <point x="663" y="1070.0"/>
      <point x="663" y="774" type="qcurve" smooth="yes"/>
      <point x="663" y="682" type="line" smooth="yes"/>
      <point x="663" y="386.0"/>
      <point x="490.1638795986622" y="50"/>
      <point x="344" y="50" type="qcurve" smooth="yes"/>
    </contour>
  </outline>
</glyph>
<glyph name="K" format="1">
  <advance width="740"/>
  <unicode hex="004B"/>
  <outline>
    <contour>
      <point x="170" y="0" type="line"/>
      <point x="224" y="0" type="line"/>
      <point x="224" y="640" type="line"/>
      <point x="776" y="1456" type="line"/>
      <point x="716" y="1456" type="line"/>
      <point x="224" y="728" type="line"/>
      <point x="224" y="1456" type="line"/>
      <point x="170" y="1456" type="line"/>
    </contour>
    <contour>
      <point x="700" y="0" type="line"/>
      <point x="760" y="0" type="line"/>
      <point x="314" y="814" type="line"/>
      <point x="278" y="764" type="line"/>
    </contour>
  </outline>
</glyph>
<glyph name="N" format="1">
  <advance width="886"/>
  <unicode hex="004E"/>
  <outline>
    <contour>
      <point x="170" y="0" type="line"/>
      <point x="224" y="0" type="line"/>
      <point x="224" y="1235" type="line" smooth="yes"/>
      <point x="224" y="1275"/>
      <point x="222" y="1350"/>
      <point x="220" y="1390" type="qcurve"/>
      <point x="225" y="1390" type="line"/>
      <point x="232" y="1350"/>
      <point x="250" y="1286"/>
      <point x="259" y="1255" type="qcurve" smooth="yes"/>
      <point x="630" y="0" type="line"/>
      <point x="716" y="0" type="line"/>
      <point x="716" y="1456" type="line"/>
      <point x="662" y="1456" type="line"/>
      <point x="662" y="220" type="line" smooth="yes"/>
      <point x="662" y="180"/>
      <point x="664" y="105"/>
      <point x="666" y="65" type="qcurve"/>
      <point x="661" y="65" type="line"/>
      <point x="654" y="105"/>
      <point x="636" y="169"/>
      <point x="627" y="200" type="qcurve" smooth="yes"/>
      <point x="256" y="1456" type="line"/>
      <point x="170" y="1456" type="line"/>
    </contour>
  </outline>
</glyph>
<glyph name="O" format="1">
  <advance width="842"/>
  <unicode hex="004F"/>
  <outline>
    <contour>
      <point x="115" y="682" type="line" smooth="yes"/>
      <point x="115" y="346.0"/>
      <point x="277" y="-30"/>
      <point x="421" y="-30" type="qcurve" smooth="yes"/>
      <point x="565" y="-30"/>
      <point x="727" y="346.0"/>
      <point x="727" y="682" type="qcurve" smooth="yes"/>
      <point x="727" y="774" type="line" smooth="yes"/>
      <point x="727" y="1110.0"/>
      <point x="565" y="1486"/>
      <point x="421" y="1486" type="qcurve" smooth="yes"/>
      <point x="277" y="1486"/>
      <point x="115" y="1110.0"/>
      <point x="115" y="774" type="qcurve" smooth="yes"/>
    </contour>
    <contour>
      <point x="170" y="682" type="qcurve" smooth="yes"/>
      <point x="170" y="774" type="line" smooth="yes"/>
      <point x="170" y="1090.0"/>
      <point x="299" y="1436"/>
      <point x="421" y="1436" type="qcurve" smooth="yes"/>
      <point x="543" y="1436"/>
      <point x="672" y="1090.0"/>
      <point x="672" y="774" type="qcurve" smooth="yes"/>
      <point x="672" y="682" type="line" smooth="yes"/>
      <point x="672" y="366.0"/>
      <point x="543" y="20"/>
      <point x="421" y="20" type="qcurve" smooth="yes"/>
      <point x="299" y="20"/>
      <point x="170" y="366.0"/>
    </contour>
  </outline>
</glyph>
<glyph name="P" format="1">
  <advance width="725"/>
  <unicode hex="0050"/>
  <outline>
    <contour>
      <point x="170" y="0" type="line"/>
      <point x="224" y="0" type="line"/>
      <point x="224" y="620" type="line"/>
      <point x="374" y="620" type="line" smooth="yes"/>
      <point x="506.9879518072289" y="620"/>
      <point x="625.0" y="856.0"/>
      <point x="625" y="1038" type="qcurve" smooth="yes"/>
      <point x="625.0" y="1220.0"/>
      <point x="506.9879518072289" y="1456"/>
      <point x="374" y="1456" type="qcurve" smooth="yes"/>
      <point x="170" y="1456" type="line"/>
    </contour>
    <contour>
      <point x="224" y="670" type="line"/>
      <point x="224" y="1406" type="line"/>
      <point x="374" y="1406" type="line" smooth="yes"/>
      <point x="482.8888888888889" y="1406"/>
      <point x="570.0" y="1196.0"/>
      <point x="570" y="1038" type="qcurve" smooth="yes"/>
      <point x="570.0" y="880.0"/>
      <point x="482.8888888888889" y="670"/>
      <point x="374" y="670" type="qcurve" smooth="yes"/>
    </contour>
  </outline>
</glyph>
<glyph name="S" format="1">
  <advance width="679"/>
  <unicode hex="0053"/>
  <outline>
    <contour>
      <point x="90" y="348" type="line" smooth="yes"/>
      <point x="90" y="173.2462311557789"/>
      <point x="231.0" y="-30.0"/>
      <point x="347" y="-30" type="qcurve" smooth="yes"/>
      <point x="463.0" y="-30.0"/>
      <point x="599.0" y="166.75675675675674"/>
      <point x="599" y="320" type="qcurve" smooth="yes"/>
      <point x="599.0" y="481.19626168224295"/>
      <point x="470.91441553759296" y="684.3816281022409"/>
      <point x="372" y="768" type="qcurve" smooth="yes"/>
      <point x="272.7312291840882" y="851.9179299680904"/>
      <point x="161.0" y="1021.2596685082873"/>
      <point x="161" y="1150" type="qcurve" smooth="yes"/>
      <point x="161.0" y="1272.437908496732"/>
      <point x="249.0" y="1436.0"/>
      <point x="341" y="1436" type="qcurve" smooth="yes"/>
      <point x="433.0" y="1436.0"/>
      <point x="527" y="1248.6374269005848"/>
      <point x="527" y="1114" type="qcurve" smooth="yes"/>
      <point x="527" y="1062" type="line"/>
      <point x="581" y="1062" type="line"/>
      <point x="581" y="1114" type="line" smooth="yes"/>
      <point x="581" y="1269.6326530612246"/>
      <point x="451.0" y="1486.0"/>
      <point x="341" y="1486" type="qcurve" smooth="yes"/>
      <point x="231.0" y="1486.0"/>
      <point x="107.0" y="1292.5168539325844"/>
      <point x="107" y="1150" type="qcurve" smooth="yes"/>
      <point x="107.0" y="995.9665071770335"/>
      <point x="259.02806246578854" y="795.73869761081"/>
      <point x="354" y="712" type="qcurve" smooth="yes"/>
      <point x="449.21926102050105" y="628.0432322184829"/>
      <point x="545.0" y="454.8817204301075"/>
      <point x="545" y="320" type="qcurve" smooth="yes"/>
      <point x="545.0" y="195.3125"/>
      <point x="443.0" y="20.0"/>
      <point x="347" y="20" type="qcurve" smooth="yes"/>
      <point x="251.0" y="20.0"/>
      <point x="144" y="194.367816091954"/>
      <point x="144" y="348" type="qcurve" smooth="yes"/>
      <point x="144" y="400" type="line"/>
      <point x="90" y="400" type="line"/>
    </contour>
  </outline>
</glyph>
<glyph name="V" format="1">
  <advance width="616"/>
  <unicode hex="0056"/>
  <outline>
    <contour>
      <point x="0" y="1456" type="line"/>
      <point x="270" y="-10" type="line"/>
      <point x="346" y="-10" type="line"/>
      <point x="616" y="1456" type="line"/>
      <point x="562" y="1456" type="line"/>
      <point x="332" y="178" type="line" smooth="yes"/>
      <point x="326" y="143"/>
      <point x="318" y="83"/>
      <point x="315" y="50" type="qcurve"/>
      <point x="305" y="50" type="line"/>
      <point x="302" y="83"/>
      <point x="294" y="143"/>
      <point x="288" y="178" type="qcurve" smooth="yes"/>
      <point x="58" y="1456" type="line"/>
    </contour>
  </outline>
</glyph>
<glyph name="W" format="1">
  <advance width="1166"/>
  <unicode hex="0057"/>
  <outline>
    <contour>
      <point x="272" y="-10" type="line"/>
      <point x="328" y="-10" type="line"/>
      <point x="566" y="1252" type="line" smooth="yes"/>
      <point x="574" y="1292"/>
      <point x="580" y="1352"/>
      <point x="582" y="1390" type="qcurve"/>
      <point x="584" y="1390" type="line"/>
      <point x="585" y="1352"/>
      <point x="592" y="1292"/>
      <point x="600" y="1252" type="qcurve" smooth="yes"/>
      <point x="838" y="-10" type="line"/>
      <point x="894" y="-10" type="line"/>
      <point x="1116" y="1456" type="line"/>
      <point x="1066" y="1456" type="line"/>
      <point x="878" y="210" type="line" smooth="yes"/>
      <point x="872" y="170"/>
      <point x="869" y="100"/>
      <point x="867" y="60" type="qcurve"/>
      <point x="863" y="60" type="line"/>
      <point x="861" y="100"/>
      <point x="855" y="170"/>
      <point x="848" y="210" type="qcurve" smooth="yes"/>
      <point x="614" y="1456" type="line"/>
      <point x="554" y="1456" type="line"/>
      <point x="320" y="210" type="line" smooth="yes"/>
      <point x="312" y="170"/>
      <point x="307" y="100"/>
      <point x="305" y="60" type="qcurve"/>
      <point x="301" y="60" type="line"/>
      <point x="299" y="100"/>
      <point x="296" y="170"/>
      <point x="290" y="210" type="qcurve" smooth="yes"/>
      <point x="102" y="1456" type="line"/>
      <point x="50" y="1456" type="line"/>
    </contour>
  </outline>
</glyph>
<glyph name="backslash" format="1">
  <advance width="268"/>
  <unicode hex="005C"/>
  <outline>
    <contour>
      <point x="-100" y="1456" type="line"/>
      <point x="319" y="-125" type="line"/>
      <point x="368" y="-125" type="line"/>
      <point x="-50" y="1456" type="line"/>
    </contour>
  </outline>
</glyph>
<glyph name="a" format="1">
  <advance width="605"/>
  <unicode hex="0061"/>
  <outline>
    <contour>
      <point x="90" y="280" type="qcurve" smooth="yes"/>
      <point x="90" y="130"/>
      <point x="173" y="-20"/>
      <point x="254" y="-20" type="qcurve" smooth="yes"/>
      <point x="312.0731707317073" y="-20.0"/>
      <point x="399.5638955536625" y="91.58070369919652"/>
      <point x="420" y="145" type="qcurve"/>
      <point x="425" y="105"/>
      <point x="439.7830516720745" y="25.94760983619426"/>
      <point x="452" y="0" type="qcurve"/>
      <point x="501" y="0" type="line"/>
      <point x="501" y="16" type="line"/>
      <point x="488" y="60"/>
      <point x="473" y="175"/>
      <point x="473" y="240" type="qcurve" smooth="yes"/>
      <point x="473" y="720" type="line" smooth="yes"/>
      <point x="473" y="900"/>
      <point x="387" y="1082"/>
      <point x="310" y="1082" type="qcurve" smooth="yes"/>
      <point x="222" y="1082"/>
      <point x="139" y="900"/>
      <point x="139" y="770" type="qcurve" smooth="yes"/>
      <point x="139" y="765" type="line"/>
      <point x="189" y="765" type="line"/>
      <point x="189" y="770" type="line" smooth="yes"/>
      <point x="189" y="874.0"/>
      <point x="242.89090909090908" y="1032.0"/>
      <point x="306" y="1032" type="qcurve" smooth="yes"/>
      <point x="368.46583850931677" y="1032.0"/>
      <point x="419" y="860.0"/>
      <point x="419" y="720" type="qcurve" smooth="yes"/>
      <point x="419" y="598" type="line"/>
      <point x="291" y="598" type="line" smooth="yes"/>
      <point x="203" y="598"/>
      <point x="90" y="425"/>
    </contour>
    <contour>
      <point x="144" y="280" type="qcurve" smooth="yes"/>
      <point x="144.0" y="400.0"/>
      <point x="225.7714285714286" y="548"/>
      <point x="306" y="548" type="qcurve" smooth="yes"/>
      <point x="419" y="548" type="line"/>
      <point x="419" y="290" type="line"/>
      <point x="419.0" y="194.34599156118145"/>
      <point x="316.7464788732394" y="30.0"/>
      <point x="254" y="30" type="qcurve" smooth="yes"/>
      <point x="197.6075949367089" y="30.0"/>
      <point x="144.0" y="160.0"/>
    </contour>
  </outline>
</glyph>
<glyph name="b" format="1">
  <advance width="658"/>
  <unicode hex="0062"/>
  <outline>
    <contour>
      <point x="148" y="0" type="line"/>
      <point x="200" y="0" type="line"/>
      <point x="198" y="107" type="line"/>
      <point x="199" y="107" type="line"/>
      <point x="222.64458469350512" y="54.35331220135814"/>
      <point x="316.97297297297297" y="-20.0"/>
      <point x="374" y="-20" type="qcurve" smooth="yes"/>
      <point x="472.89230769230767" y="-20.0"/>
      <point x="573" y="280.0"/>
      <point x="573" y="510" type="qcurve" smooth="yes"/>
      <point x="573" y="542" type="line" smooth="yes"/>
      <point x="573" y="772.0"/>
      <point x="472.89230769230767" y="1072.0"/>
      <point x="374" y="1072" type="qcurve" smooth="yes"/>
      <point x="316.8571428571429" y="1072.0"/>
      <point x="230.17319784922893" y="1010.024440461535"/>
      <point x="202" y="958" type="qcurve"/>
      <point x="202" y="1536" type="line"/>
      <point x="148" y="1536" type="line"/>
    </contour>
    <contour>
      <point x="202" y="172" type="qcurve"/>
      <point x="202" y="880" type="line"/>
      <point x="220.80845769003793" y="936.4849501856119"/>
      <point x="297.76" y="1022.0"/>
      <point x="354" y="1022" type="qcurve" smooth="yes"/>
      <point x="439.18604651162786" y="1022.0"/>
      <point x="519" y="745.0"/>
      <point x="519" y="542" type="qcurve" smooth="yes"/>
      <point x="519" y="510" type="line" smooth="yes"/>
      <point x="519" y="307.0"/>
      <point x="439.18604651162786" y="30.0"/>
      <point x="354" y="30" type="qcurve" smooth="yes"/>
      <point x="297.76" y="30.0"/>
      <point x="220.80845769003793" y="115.51504981438814"/>
    </contour>
  </outline>
</glyph>
<glyph name="d" format="1">
  <advance width="658"/>
  <unicode hex="0064"/>
  <outline>
    <contour>
      <point x="85" y="510" type="line" smooth="yes"/>
      <point x="85" y="280"/>
      <point x="185" y="-20"/>
      <point x="284" y="-20" type="qcurve" smooth="yes"/>
      <point x="341" y="-20"/>
      <point x="435" y="54"/>
      <point x="459" y="107" type="qcurve"/>
      <point x="460" y="107" type="line"/>
      <point x="458" y="0" type="line"/>
      <point x="510" y="0" type="line"/>
      <point x="510" y="1536" type="line"/>
      <point x="456" y="1536" type="line"/>
      <point x="456" y="958" type="line"/>
      <point x="428" y="1010"/>
      <point x="341" y="1072"/>
      <point x="284" y="1072" type="qcurve" smooth="yes"/>
      <point x="185" y="1072"/>
      <point x="85" y="772"/>
      <point x="85" y="542" type="qcurve" smooth="yes"/>
    </contour>
    <contour>
      <point x="139" y="510" type="qcurve" smooth="yes"/>
      <point x="139" y="542" type="line" smooth="yes"/>
      <point x="139" y="745"/>
      <point x="219" y="1022"/>
      <point x="304" y="1022" type="qcurve" smooth="yes"/>
      <point x="360" y="1022"/>
      <point x="437" y="936"/>
      <point x="456" y="880" type="qcurve"/>
      <point x="456" y="172" type="line"/>
      <point x="437" y="116"/>
      <point x="360" y="30"/>
      <point x="304" y="30" type="qcurve" smooth="yes"/>
      <point x="219" y="30"/>
      <point x="139" y="307"/>
    </contour>
  </outline>
</glyph>
<glyph name="e" format="1">
  <advance width="556.0"/>
  <unicode hex="0065"/>
  <outline>
    <contour>
      <point x="85" y="510" type="line" smooth="yes"/>
      <point x="85" y="272"/>
      <point x="208" y="-30"/>
      <point x="323" y="-30" type="qcurve" smooth="yes"/>
      <point x="384" y="-30"/>
      <point x="465" y="60"/>
      <point x="492" y="120" type="qcurve"/>
      <point x="445" y="155" type="line"/>
      <point x="414" y="92"/>
      <point x="363.85981308411215" y="20.0"/>
      <point x="323" y="20" type="qcurve" smooth="yes"/>
      <point x="226.47210300429185" y="20.0"/>
      <point x="134" y="302.0"/>
      <point x="134" y="510" type="qcurve" smooth="yes"/>
      <point x="134" y="542" type="line" smooth="yes"/>
      <point x="134" y="750.0"/>
      <point x="219.478672985782" y="1032.0"/>
      <point x="301" y="1032" type="qcurve" smooth="yes"/>
      <point x="380.9157894736843" y="1032.0"/>
      <point x="447.0" y="770.0"/>
      <point x="447" y="600" type="qcurve"/>
      <point x="447" y="582" type="line"/>
      <point x="93" y="582" type="line"/>
      <point x="93" y="534" type="line"/>
      <point x="496" y="534" type="line"/>
      <point x="496" y="560" type="line" smooth="yes"/>
      <point x="496" y="800"/>
      <point x="395" y="1082"/>
      <point x="301" y="1082" type="qcurve" smooth="yes"/>
      <point x="203" y="1082"/>
      <point x="85" y="780"/>
      <point x="85" y="542" type="qcurve" smooth="yes"/>
    </contour>
  </outline>
</glyph>
<glyph name="f" format="1">
  <advance width="316"/>
  <unicode hex="0066"/>
  <outline>
    <contour>
      <point x="128" y="0" type="line"/>
      <point x="182" y="0" type="line"/>
      <point x="182" y="1022" type="line"/>
      <point x="182" y="1032" type="line"/>
      <point x="182" y="1200" type="line" smooth="yes"/>
      <point x="182" y="1355.0"/>
      <point x="241.8705035971223" y="1510.0"/>
      <point x="296" y="1510" type="qcurve" smooth="yes"/>
      <point x="316" y="1510"/>
      <point x="357" y="1500"/>
      <point x="369" y="1495" type="qcurve"/>
      <point x="376" y="1540" type="line"/>
      <point x="360" y="1546"/>
      <point x="321" y="1556"/>
      <point x="302" y="1556" type="qcurve" smooth="yes"/>
      <point x="220.82442748091603" y="1556.0"/>
      <point x="128" y="1374.0"/>
      <point x="128" y="1200" type="qcurve" smooth="yes"/>
    </contour>
    <contour>
      <point x="25" y="1002" type="line"/>
      <point x="326" y="1002" type="line"/>
      <point x="326" y="1052" type="line"/>
      <point x="153" y="1052" type="line"/>
      <point x="155" y="1052" type="line"/>
      <point x="25" y="1052" type="line"/>
    </contour>
  </outline>
</glyph>
<glyph name="h" format="1">
  <advance width="652"/>
  <unicode hex="0068"/>
  <outline>
    <contour>
      <point x="148" y="0" type="line"/>
      <point x="202" y="0" type="line"/>
      <point x="202" y="874" type="line"/>
      <point x="226" y="939"/>
      <point x="298" y="1022"/>
      <point x="348" y="1022" type="qcurve" smooth="yes"/>
      <point x="402" y="1022"/>
      <point x="460" y="924"/>
      <point x="460" y="811" type="qcurve" smooth="yes"/>
      <point x="460" y="0" type="line"/>
      <point x="514" y="0" type="line"/>
      <point x="514" y="809" type="line" smooth="yes"/>
      <point x="514" y="951"/>
      <point x="434" y="1072"/>
      <point x="364" y="1072" type="qcurve" smooth="yes"/>
      <point x="309" y="1072"/>
      <point x="223" y="1005"/>
      <point x="202" y="947" type="qcurve"/>
      <point x="202" y="1536" type="line"/>
      <point x="148" y="1536" type="line"/>
    </contour>
  </outline>
</glyph>
<glyph name="m" format="1">
  <advance width="924"/>
  <unicode hex="006D"/>
  <outline>
    <contour>
      <point x="148" y="0" type="line"/>
      <point x="202" y="0" type="line"/>
      <point x="202" y="874" type="line"/>
      <point x="226" y="938"/>
      <point x="291" y="1022"/>
      <point x="338" y="1022" type="qcurve" smooth="yes"/>
      <point x="387" y="1022"/>
      <point x="438" y="924"/>
      <point x="440" y="811" type="qcurve" smooth="yes"/>
      <point x="440" y="0" type="line"/>
      <point x="494" y="0" type="line"/>
      <point x="494" y="874" type="line"/>
      <point x="518" y="938"/>
      <point x="583" y="1022"/>
      <point x="630" y="1022" type="qcurve" smooth="yes"/>
      <point x="679" y="1022"/>
      <point x="730" y="924"/>
      <point x="732" y="811" type="qcurve" smooth="yes"/>
      <point x="732" y="0" type="line"/>
      <point x="786" y="0" type="line"/>
      <point x="786" y="809" type="line" smooth="yes"/>
      <point x="786" y="951"/>
      <point x="711" y="1072"/>
      <point x="656" y="1072" type="qcurve" smooth="yes"/>
      <point x="593" y="1072"/>
      <point x="499" y="973"/>
      <point x="490" y="914" type="qcurve"/>
      <point x="490" y="914" type="line"/>
      <point x="481" y="985"/>
      <point x="412" y="1072"/>
      <point x="354" y="1072" type="qcurve" smooth="yes"/>
      <point x="302" y="1072"/>
      <point x="222" y="1004"/>
      <point x="199" y="947" type="qcurve"/>
      <point x="198" y="947" type="line"/>
      <point x="200" y="1052" type="line"/>
      <point x="148" y="1052" type="line"/>
    </contour>
  </outline>
</glyph>
<glyph name="o" format="1">
  <advance width="632"/>
  <unicode hex="006F"/>
  <outline>
    <contour>
      <point x="85" y="510" type="line" smooth="yes"/>
      <point x="85" y="272"/>
      <point x="211" y="-30"/>
      <point x="316" y="-30" type="qcurve" smooth="yes"/>
      <point x="421" y="-30"/>
      <point x="547" y="272"/>
      <point x="547" y="510" type="qcurve" smooth="yes"/>
      <point x="547" y="542" type="line" smooth="yes"/>
      <point x="547" y="780"/>
      <point x="421" y="1082"/>
      <point x="316" y="1082" type="qcurve" smooth="yes"/>
      <point x="211" y="1082"/>
      <point x="85" y="780"/>
      <point x="85" y="542" type="qcurve" smooth="yes"/>
    </contour>
    <contour>
      <point x="139" y="542" type="line" smooth="yes"/>
      <point x="139" y="748"/>
      <point x="230" y="1032"/>
      <point x="316" y="1032" type="qcurve" smooth="yes"/>
      <point x="402" y="1032"/>
      <point x="493" y="748"/>
      <point x="493" y="542" type="qcurve" smooth="yes"/>
      <point x="493" y="510" type="line" smooth="yes"/>
      <point x="493" y="304"/>
      <point x="402" y="20"/>
      <point x="316" y="20" type="qcurve" smooth="yes"/>
      <point x="230" y="20"/>
      <point x="139" y="304"/>
      <point x="139" y="510" type="qcurve" smooth="yes"/>
    </contour>
  </outline>
</glyph>
<glyph name="r" format="1">
  <advance width="432"/>
  <unicode hex="0072"/>
  <outline>
    <contour>
      <point x="148" y="0" type="line"/>
      <point x="202" y="0" type="line"/>
      <point x="202" y="880" type="line"/>
      <point x="223.19955249982291" y="943.944051022172"/>
      <point x="296.6703296703297" y="1032.0"/>
      <point x="336" y="1032" type="qcurve" smooth="yes"/>
      <point x="355" y="1032"/>
      <point x="387" y="1024"/>
      <point x="402" y="1020" type="qcurve"/>
      <point x="402" y="1068" type="line"/>
      <point x="395" y="1072"/>
      <point x="359" y="1082"/>
      <point x="343" y="1082" type="qcurve" smooth="yes"/>
      <point x="293" y="1082"/>
      <point x="221.4414901244918" y="1008.294834570267"/>
      <point x="199" y="957" type="qcurve"/>
      <point x="198" y="957" type="line"/>
      <point x="200" y="1052" type="line"/>
      <point x="148" y="1052" type="line"/>
    </contour>
  </outline>
</glyph>
<glyph name="s" format="1">
  <advance width="525"/>
  <unicode hex="0073"/>
  <outline>
    <contour>
      <point x="80" y="310" type="line"/>
      <point x="80" y="305" type="line" smooth="yes"/>
      <point x="80" y="150"/>
      <point x="176" y="-30"/>
      <point x="266" y="-30" type="qcurve" smooth="yes"/>
      <point x="357" y="-30"/>
      <point x="445" y="140"/>
      <point x="445" y="270" type="qcurve" smooth="yes"/>
      <point x="445" y="385"/>
      <point x="367" y="514"/>
      <point x="293" y="560" type="qcurve" smooth="yes"/>
      <point x="219" y="606"/>
      <point x="162" y="715"/>
      <point x="162" y="810" type="qcurve" smooth="yes"/>
      <point x="162" y="905"/>
      <point x="221.2987012987013" y="1032.0"/>
      <point x="266" y="1032" type="qcurve" smooth="yes"/>
      <point x="313.2452830188679" y="1032.0"/>
      <point x="377" y="888.0"/>
      <point x="377" y="760" type="qcurve" smooth="yes"/>
      <point x="377" y="755" type="line"/>
      <point x="431" y="755" type="line"/>
      <point x="431" y="760" type="line" smooth="yes"/>
      <point x="431" y="910"/>
      <point x="340" y="1082"/>
      <point x="266" y="1082" type="qcurve" smooth="yes"/>
      <point x="193" y="1082"/>
      <point x="106" y="920"/>
      <point x="106" y="800" type="qcurve" smooth="yes"/>
      <point x="106" y="700"/>
      <point x="173" y="575"/>
      <point x="247" y="529" type="qcurve" smooth="yes"/>
      <point x="321" y="483"/>
      <point x="391.0" y="370.0"/>
      <point x="391" y="260" type="qcurve" smooth="yes"/>
      <point x="391.0" y="154.0"/>
      <point x="325.2485549132948" y="20.0"/>
      <point x="266" y="20" type="qcurve" smooth="yes"/>
      <point x="206.60000000000002" y="20.0"/>
      <point x="134" y="160.0"/>
      <point x="134" y="305" type="qcurve" smooth="yes"/>
      <point x="134" y="310" type="line"/>
    </contour>
  </outline>
</glyph>
<glyph name="t" format="1">
  <advance width="372"/>
  <unicode hex="0074"/>
  <outline>
    <contour>
      <point x="0" y="1002" type="line"/>
      <point x="322" y="1002" type="line"/>
      <point x="322" y="1052" type="line"/>
      <point x="0" y="1052" type="line"/>
    </contour>
    <contour>
      <point x="120" y="260" type="line" smooth="yes"/>
      <point x="120" y="110.0"/>
      <point x="191" y="-30"/>
      <point x="254" y="-30" type="qcurve" smooth="yes"/>
      <point x="272" y="-30"/>
      <point x="301" y="-18"/>
      <point x="312" y="-10" type="qcurve"/>
      <point x="312" y="40" type="line"/>
      <point x="302" y="31"/>
      <point x="274.5308641975309" y="20.0"/>
      <point x="261" y="20" type="qcurve" smooth="yes"/>
      <point x="215.73684210526318" y="20.0"/>
      <point x="174" y="131.0"/>
      <point x="174" y="260" type="qcurve" smooth="yes"/>
      <point x="174" y="1312" type="line"/>
      <point x="120" y="1312" type="line"/>
      <point x="120" y="1032" type="line"/>
      <point x="120" y="1022" type="line"/>
    </contour>
  </outline>
</glyph>
<glyph name="u" format="1">
  <advance width="652"/>
  <unicode hex="0075"/>
  <outline>
    <contour>
      <point x="138" y="243" type="line" smooth="yes"/>
      <point x="138" y="101"/>
      <point x="218" y="-20"/>
      <point x="288" y="-20" type="qcurve" smooth="yes"/>
      <point x="343" y="-20"/>
      <point x="431" y="47"/>
      <point x="453" y="105" type="qcurve"/>
      <point x="454" y="105" type="line"/>
      <point x="452" y="0" type="line"/>
      <point x="504" y="0" type="line"/>
      <point x="504" y="1052" type="line"/>
      <point x="450" y="1052" type="line"/>
      <point x="450" y="178" type="line"/>
      <point x="426" y="113"/>
      <point x="354" y="30"/>
      <point x="304" y="30" type="qcurve" smooth="yes"/>
      <point x="250" y="30"/>
      <point x="192" y="128"/>
      <point x="192" y="241" type="qcurve" smooth="yes"/>
      <point x="192" y="1052" type="line"/>
      <point x="138" y="1052" type="line"/>
    </contour>
  </outline>
</glyph>
<glyph name="w" format="1">
  <advance width="900"/>
  <unicode hex="0077"/>
  <outline>
    <contour>
      <point x="25" y="1052" type="line"/>
      <point x="172" y="0" type="line"/>
      <point x="275" y="0" type="line"/>
      <point x="432" y="770" type="line" smooth="yes"/>
      <point x="440" y="810"/>
      <point x="448" y="890"/>
      <point x="450" y="930" type="qcurve"/>
      <point x="454" y="930" type="line"/>
      <point x="456" y="890"/>
      <point x="464" y="810"/>
      <point x="472" y="770" type="qcurve" smooth="yes"/>
      <point x="625" y="0" type="line"/>
      <point x="728" y="0" type="line"/>
      <point x="875" y="1052" type="line"/>
      <point x="813" y="1052" type="line"/>
      <point x="701" y="280" type="line" smooth="yes"/>
      <point x="696" y="240"/>
      <point x="692" y="160"/>
      <point x="684" y="120" type="qcurve"/>
      <point x="678" y="120" type="line"/>
      <point x="670" y="160"/>
      <point x="655" y="240"/>
      <point x="647" y="280" type="qcurve" smooth="yes"/>
      <point x="490" y="1052" type="line"/>
      <point x="408" y="1052" type="line"/>
      <point x="254" y="280" type="line" smooth="yes"/>
      <point x="246" y="240"/>
      <point x="232" y="160"/>
      <point x="224" y="120" type="qcurve"/>
      <point x="218" y="120" type="line"/>
      <point x="210" y="160"/>
      <point x="205" y="240"/>
      <point x="200" y="280" type="qcurve" smooth="yes"/>
      <point x="85" y="1052" type="line"/>
    </contour>
  </outline>
</glyph>
<glyph name="z" format="1">
  <advance width="629"/>
  <unicode hex="007A"/>
  <outline>
    <contour>
      <point x="70" y="0" type="line"/>
      <point x="565" y="0" type="line"/>
      <point x="565" y="50" type="line"/>
      <point x="99" y="50" type="line"/>
      <point x="543" y="988" type="line"/>
      <point x="543" y="1052" type="line"/>
      <point x="76" y="1052" type="line"/>
      <point x="76" y="1002" type="line"/>
      <point x="514" y="1002" type="line"/>
      <point x="70" y="64" type="line"/>
    </contour>
  </outline>
</glyph>
<glyph name="braceleft" format="1">
  <advance width="570"/>
  <unicode hex="007B"/>
  <outline>
    <contour>
      <point x="442" y="-312" type="qcurve"/>
      <point x="442" y="-262" type="line"/>
      <point x="362" y="-262"/>
      <point x="254" y="-97"/>
      <point x="288" y="83" type="qcurve" smooth="yes"/>
      <point x="332" y="334" type="line" smooth="yes"/>
      <point x="347" y="419"/>
      <point x="274" y="538"/>
      <point x="173" y="574" type="qcurve"/>
      <point x="274" y="610"/>
      <point x="347" y="729"/>
      <point x="332" y="814" type="qcurve" smooth="yes"/>
      <point x="288" y="1065" type="line" smooth="yes"/>
      <point x="254" y="1245"/>
      <point x="362" y="1410"/>
      <point x="442" y="1410" type="qcurve"/>
      <point x="442" y="1460" type="line"/>
      <point x="341" y="1460"/>
      <point x="198" y="1256"/>
      <point x="232" y="1065" type="qcurve" smooth="yes"/>
      <point x="276" y="814" type="line" smooth="yes"/>
      <point x="301" y="684"/>
      <point x="201" y="600"/>
      <point x="117" y="600" type="qcurve"/>
      <point x="117" y="548" type="line"/>
      <point x="201" y="548"/>
      <point x="301" y="464"/>
      <point x="276" y="334" type="qcurve" smooth="yes"/>
      <point x="232" y="83" type="line" smooth="yes"/>
      <point x="198" y="-108"/>
      <point x="341" y="-312"/>
    </contour>
  </outline>
</glyph>
<glyph name="braceright" format="1">
  <advance width="570"/>
  <unicode hex="007D"/>
  <outline>
    <contour>
      <point x="128" y="-312" type="line"/>
      <point x="229" y="-312"/>
      <point x="372" y="-108"/>
      <point x="338" y="83" type="qcurve" smooth="yes"/>
      <point x="294" y="334" type="line" smooth="yes"/>
      <point x="269" y="464"/>
      <point x="369" y="548"/>
      <point x="453" y="548" type="qcurve"/>
      <point x="453" y="600" type="line"/>
      <point x="369" y="600"/>
      <point x="269" y="684"/>
      <point x="294" y="814" type="qcurve" smooth="yes"/>
      <point x="338" y="1065" type="line" smooth="yes"/>
      <point x="372" y="1256"/>
      <point x="229" y="1460"/>
      <point x="128" y="1460" type="qcurve"/>
      <point x="128" y="1410" type="line"/>
      <point x="208" y="1410"/>
      <point x="316" y="1245"/>
      <point x="282" y="1065" type="qcurve" smooth="yes"/>
      <point x="238" y="814" type="line" smooth="yes"/>
      <point x="223" y="729"/>
      <point x="296" y="610"/>
      <point x="397" y="574" type="qcurve"/>
      <point x="296" y="538"/>
      <point x="223" y="419"/>
      <point x="238" y="334" type="qcurve" smooth="yes"/>
      <point x="282" y="83" type="line" smooth="yes"/>
      <point x="316" y="-97"/>
      <point x="208" y="-262"/>
      <point x="128" y="-262" type="qcurve"/>
    </contour>
  </outline>
</glyph>
<glyph name="asciitilde" format="1">
  <advance width="1170"/>
  <unicode hex="007E"/>
  <outline>
    <contour>
      <point x="303" y="436" type="qcurve"/>
      <point x="353" y="436" type="line"/>
      <point x="353.0" y="565.4845360824743"/>
      <point x="388.0" y="750.0"/>
      <point x="431" y="750" type="qcurve" smooth="yes"/>
      <point x="490.0" y="750.0"/>
      <point x="697" y="424"/>
      <point x="759" y="424" type="qcurve" smooth="yes"/>
      <point x="820" y="424"/>
      <point x="867.0" y="640.0"/>
      <point x="867" y="788" type="qcurve"/>
      <point x="817" y="788" type="line"/>
      <point x="817.0" y="658.5154639175257"/>
      <point x="782.0" y="474.0"/>
      <point x="739" y="474" type="qcurve" smooth="yes"/>
      <point x="680.0" y="474.0"/>
      <point x="473" y="800"/>
      <point x="411" y="800" type="qcurve" smooth="yes"/>
      <point x="350" y="800"/>
      <point x="303.0" y="584.0"/>
    </contour>
  </outline>
</glyph>
<glyph name="currency" format="1">
  <advance width="1142"/>
  <unicode hex="00A4"/>
  <outline>
    <contour>
      <point x="255" y="610" type="qcurve" smooth="yes"/>
      <point x="255.0" y="355.0"/>
      <point x="434.26956521739135" y="0.0"/>
      <point x="571" y="0" type="qcurve" smooth="yes"/>
      <point x="707.7304347826087" y="0.0"/>
      <point x="887.0" y="355.0"/>
      <point x="887" y="610" type="qcurve" smooth="yes"/>
      <point x="887.0" y="865.0"/>
      <point x="707.7304347826087" y="1220.0"/>
      <point x="571" y="1220" type="qcurve" smooth="yes"/>
      <point x="434.26956521739135" y="1220.0"/>
      <point x="255.0" y="865.0"/>
    </contour>
    <contour>
      <point x="309" y="610" type="qcurve" smooth="yes"/>
      <point x="309.0" y="846.3120567375886"/>
      <point x="456.0" y="1170.0"/>
      <point x="571" y="1170" type="qcurve" smooth="yes"/>
      <point x="686.0" y="1170.0"/>
      <point x="833.0" y="846.3120567375886"/>
      <point x="833" y="610" type="qcurve" smooth="yes"/>
      <point x="833.0" y="373.68794326241135"/>
      <point x="686.0" y="50.0"/>
      <point x="571" y="50" type="qcurve" smooth="yes"/>
      <point x="456.0" y="50.0"/>
      <point x="309.0" y="373.68794326241135"/>
    </contour>
    <contour>
      <point x="205" y="1210" type="line"/>
      <point x="354" y="1012" type="line"/>
      <point x="398" y="1038" type="line"/>
      <point x="249" y="1236" type="line"/>
    </contour>
    <contour>
      <point x="744" y="1038" type="line"/>
      <point x="788" y="1012" type="line"/>
      <point x="937" y="1210" type="line"/>
      <point x="893" y="1236" type="line"/>
    </contour>
    <contour>
      <point x="744" y="182" type="line"/>
      <point x="893" y="-16" type="line"/>
      <point x="937" y="10" type="line"/>
      <point x="788" y="208" type="line"/>
    </contour>
    <contour>
      <point x="205" y="10" type="line"/>
      <point x="249" y="-16" type="line"/>
      <point x="398" y="182" type="line"/>
      <point x="354" y="208" type="line"/>
    </contour>
  </outline>
</glyph>
<glyph name="yen" format="1">
  <advance width="1005"/>
  <unicode hex="00A5"/>
  <outline>
    <contour>
      <point x="197" y="305" type="line"/>
      <point x="809" y="305" type="line"/>
      <point x="809" y="355" type="line"/>
      <point x="197" y="355" type="line"/>
    </contour>
    <contour>
      <point x="197" y="595" type="line"/>
      <point x="809" y="595" type="line"/>
      <point x="809" y="645" type="line"/>
      <point x="197" y="645" type="line"/>
    </contour>
    <contour>
      <point x="477" y="0" type="line"/>
      <point x="528" y="0" type="line"/>
      <point x="528" y="662" type="line"/>
      <point x="857" y="1456" type="line"/>
      <point x="784" y="1456" type="line"/>
      <point x="546" y="898" type="line" smooth="yes"/>
      <point x="535" y="868"/>
      <point x="513" y="808"/>
      <point x="505" y="778" type="qcurve"/>
      <point x="501" y="778" type="line"/>
      <point x="493" y="808"/>
      <point x="471" y="868"/>
      <point x="460" y="898" type="qcurve" smooth="yes"/>
      <point x="213" y="1456" type="line"/>
      <point x="148" y="1456" type="line"/>
      <point x="477" y="662" type="line"/>
    </contour>
  </outline>
</glyph>
<glyph name="dieresis" format="1">
  <advance width="916"/>
  <unicode hex="00A8"/>
  <outline>
    <contour>
      <point x="306" y="1257" type="qcurve" smooth="yes"/>
      <point x="306" y="1227"/>
      <point x="332" y="1186"/>
      <point x="356" y="1186" type="qcurve" smooth="yes"/>
      <point x="380" y="1186"/>
      <point x="406" y="1227"/>
      <point x="406" y="1257" type="qcurve" smooth="yes"/>
      <point x="406" y="1287"/>
      <point x="380" y="1328"/>
      <point x="356" y="1328" type="qcurve" smooth="yes"/>
      <point x="332" y="1328"/>
      <point x="306" y="1287"/>
    </contour>
    <contour>
      <point x="510" y="1257" type="qcurve" smooth="yes"/>
      <point x="510" y="1227"/>
      <point x="536" y="1186"/>
      <point x="560" y="1186" type="qcurve" smooth="yes"/>
      <point x="584" y="1186"/>
      <point x="610" y="1227"/>
      <point x="610" y="1257" type="qcurve" smooth="yes"/>
      <point x="610" y="1287"/>
      <point x="584" y="1328"/>
      <point x="560" y="1328" type="qcurve" smooth="yes"/>
      <point x="536" y="1328"/>
      <point x="510" y="1287"/>
    </contour>
  </outline>
</glyph>
<glyph name="ordfeminine" format="1">
  <advance width="497"/>
  <unicode hex="00AA"/>
  <outline>
    <contour>
      <point x="66" y="850" type="qcurve" smooth="yes"/>
      <point x="66.0" y="734.0"/>
      <point x="133" y="611"/>
      <point x="181" y="611" type="qcurve" smooth="yes"/>
      <point x="239" y="611"/>
      <point x="306.6977251282682" y="705.204539811232"/>
      <point x="329" y="760" type="qcurve"/>
      <point x="333" y="724"/>
      <point x="344" y="649"/>
      <point x="353" y="627" type="qcurve"/>
      <point x="399" y="627" type="line"/>
      <point x="399" y="639" type="line"/>
      <point x="389" y="674"/>
      <point x="377" y="764"/>
      <point x="377" y="815" type="qcurve" smooth="yes"/>
      <point x="377" y="1192" type="line" smooth="yes"/>
      <point x="377" y="1333"/>
      <point x="304" y="1476"/>
      <point x="244" y="1476" type="qcurve" smooth="yes"/>
      <point x="184" y="1476"/>
      <point x="102" y="1333"/>
      <point x="102" y="1222" type="qcurve" smooth="yes"/>
      <point x="102" y="1216" type="line"/>
      <point x="152" y="1216" type="line"/>
      <point x="152" y="1222" type="line" smooth="yes"/>
      <point x="152" y="1305"/>
      <point x="196.76335877862596" y="1430.0"/>
      <point x="241" y="1430" type="qcurve" smooth="yes"/>
      <point x="284.03125" y="1430.0"/>
      <point x="327" y="1297.0"/>
      <point x="327" y="1192" type="qcurve" smooth="yes"/>
      <point x="327" y="1095" type="line"/>
      <point x="229" y="1095" type="line" smooth="yes"/>
      <point x="158" y="1095"/>
      <point x="66" y="967"/>
    </contour>
    <contour>
      <point x="116" y="858" type="qcurve" smooth="yes"/>
      <point x="116.0" y="946.0"/>
      <point x="178.87425149700601" y="1052"/>
      <point x="241" y="1052" type="qcurve" smooth="yes"/>
      <point x="327" y="1052" type="line"/>
      <point x="327" y="873" type="line"/>
      <point x="327.0" y="795.0"/>
      <point x="248" y="657"/>
      <point x="200" y="657" type="qcurve" smooth="yes"/>
      <point x="157" y="657"/>
      <point x="116.0" y="763.0"/>
    </contour>
  </outline>
</glyph>
<glyph name="logicalnot" format="1">
  <advance width="942.0"/>
  <unicode hex="00AC"/>
  <outline>
    <contour>
      <point x="190" y="666" type="line"/>
      <point x="702" y="666" type="line"/>
      <point x="702" y="436" type="line"/>
      <point x="752" y="436" type="line"/>
      <point x="752" y="720" type="line"/>
      <point x="190" y="720" type="line"/>
    </contour>
  </outline>
</glyph>
<glyph name="registered" format="1">
  <advance width="1150"/>
  <unicode hex="00AE"/>
  <outline>
    <contour>
      <point x="94" y="698" type="qcurve" smooth="yes"/>
      <point x="94" y="364"/>
      <point x="379" y="-82"/>
      <point x="575" y="-82" type="qcurve" smooth="yes"/>
      <point x="771" y="-82"/>
      <point x="1056" y="364"/>
      <point x="1056" y="698" type="qcurve" smooth="yes"/>
      <point x="1056" y="1032"/>
      <point x="771" y="1478"/>
      <point x="575" y="1478" type="qcurve" smooth="yes"/>
      <point x="379" y="1478"/>
      <point x="94" y="1032"/>
    </contour>
    <contour>
      <point x="146" y="698" type="qcurve" smooth="yes"/>
      <point x="146" y="1002"/>
      <point x="391" y="1428"/>
      <point x="575" y="1428" type="qcurve" smooth="yes"/>
      <point x="758" y="1428"/>
      <point x="1004" y="1002"/>
      <point x="1004" y="698" type="qcurve" smooth="yes"/>
      <point x="1004" y="394"/>
      <point x="759" y="-32"/>
      <point x="575" y="-32" type="qcurve" smooth="yes"/>
      <point x="391" y="-32"/>
      <point x="146" y="394"/>
    </contour>
    <contour>
      <point x="457" y="284" type="line"/>
      <point x="509" y="284" type="line"/>
      <point x="509" y="592" type="line"/>
      <point x="562" y="592" type="line" smooth="yes"/>
      <point x="628.7136929460581" y="592"/>
      <point x="715.0" y="742.0"/>
      <point x="715" y="867" type="qcurve" smooth="yes"/>
      <point x="715.0" y="992.0"/>
      <point x="628.7136929460581" y="1132"/>
      <point x="562" y="1132" type="qcurve" smooth="yes"/>
      <point x="457" y="1132" type="line"/>
    </contour>
    <contour>
      <point x="509" y="640" type="line"/>
      <point x="509" y="1084" type="line"/>
      <point x="562" y="1084" type="line" smooth="yes"/>
      <point x="611.8765432098766" y="1084"/>
      <point x="663.0" y="971.0"/>
      <point x="663" y="862" type="qcurve" smooth="yes"/>
      <point x="663.0" y="753.0"/>
      <point x="611.8765432098766" y="640"/>
      <point x="562" y="640" type="qcurve" smooth="yes"/>
    </contour>
    <contour>
      <point x="696" y="284" type="line"/>
      <point x="760" y="284" type="line"/>
      <point x="592" y="616" type="line"/>
      <point x="534" y="616" type="line"/>
    </contour>
  </outline>
</glyph>
<glyph name="macron" format="1">
  <advance width="868"/>
  <unicode hex="00AF"/>
  <outline>
    <contour>
      <point x="250" y="1228" type="line"/>
      <point x="618" y="1228" type="line"/>
      <point x="618" y="1278" type="line"/>
      <point x="250" y="1278" type="line"/>
    </contour>
  </outline>
</glyph>
<glyph name="mu.math" format="1">
  <advance width="671"/>
  <unicode hex="00B5"/>
  <outline>
    <contour>
      <point x="148" y="-416" type="line"/>
      <point x="194" y="-416" type="line"/>
      <point x="194" y="69" type="line"/>
      <point x="209" y="23"/>
      <point x="280" y="-20"/>
      <point x="319" y="-20" type="qcurve" smooth="yes"/>
      <point x="365" y="-20"/>
      <point x="450" y="31"/>
      <point x="476" y="76" type="qcurve"/>
      <point x="478" y="76" type="line"/>
      <point x="475" y="0" type="line"/>
      <point x="523" y="0" type="line"/>
      <point x="523" y="1052" type="line"/>
      <point x="469" y="1052" type="line"/>
      <point x="469" y="122" type="line"/>
      <point x="436" y="76"/>
      <point x="363" y="30"/>
      <point x="317" y="30" type="qcurve" smooth="yes"/>
      <point x="261" y="30"/>
      <point x="202" y="100"/>
      <point x="202" y="181" type="qcurve" smooth="yes"/>
      <point x="202" y="1052" type="line"/>
      <point x="148" y="1052" type="line"/>
    </contour>
  </outline>
</glyph>
<glyph name="periodcentered" format="1">
  <advance width="424"/>
  <unicode hex="00B7"/>
  <outline>
    <contour>
      <point x="160" y="730" type="qcurve" smooth="yes"/>
      <point x="160" y="699"/>
      <point x="187" y="655"/>
      <point x="212" y="655" type="qcurve" smooth="yes"/>
      <point x="237" y="655"/>
      <point x="264" y="699"/>
      <point x="264" y="730" type="qcurve" smooth="yes"/>
      <point x="264" y="761"/>
      <point x="237" y="805"/>
      <point x="212" y="805" type="qcurve" smooth="yes"/>
      <point x="187" y="805"/>
      <point x="160" y="761"/>
    </contour>
  </outline>
</glyph>
<glyph name="cedilla" format="1">
  <advance width="1024"/>
  <unicode hex="00B8"/>
  <outline>
    <contour>
      <point x="488" y="0" type="line"/>
      <point x="428" y="-215" type="line"/>
      <point x="481" y="-215"/>
      <point x="526" y="-282"/>
      <point x="526" y="-340" type="qcurve" smooth="yes"/>
      <point x="526" y="-408"/>
      <point x="458" y="-488"/>
      <point x="385" y="-488" type="qcurve"/>
      <point x="387" y="-536" type="line"/>
      <point x="493" y="-536"/>
      <point x="576" y="-422"/>
      <point x="576" y="-340" type="qcurve" smooth="yes"/>
      <point x="576" y="-278"/>
      <point x="542" y="-198"/>
      <point x="488" y="-180" type="qcurve"/>
      <point x="542" y="0" type="line"/>
    </contour>
  </outline>
</glyph>
<glyph name="ordmasculine" format="1">
  <advance width="496"/>
  <unicode hex="00BA"/>
  <outline>
    <contour>
      <point x="60" y="1027" type="line" smooth="yes"/>
      <point x="60" y="840"/>
      <point x="163" y="603"/>
      <point x="248" y="603" type="qcurve" smooth="yes"/>
      <point x="333" y="603"/>
      <point x="436" y="840"/>
      <point x="436" y="1027" type="qcurve" smooth="yes"/>
      <point x="436" y="1052" type="line" smooth="yes"/>
      <point x="436" y="1239"/>
      <point x="333" y="1476"/>
      <point x="248" y="1476" type="qcurve" smooth="yes"/>
      <point x="163" y="1476"/>
      <point x="60" y="1239"/>
      <point x="60" y="1052" type="qcurve" smooth="yes"/>
    </contour>
    <contour>
      <point x="110" y="1052" type="line" smooth="yes"/>
      <point x="110" y="1209.6666666666667"/>
      <point x="180.0" y="1430.0"/>
      <point x="248" y="1430" type="qcurve" smooth="yes"/>
      <point x="316.0" y="1430.0"/>
      <point x="386" y="1209.6666666666667"/>
      <point x="386" y="1052" type="qcurve" smooth="yes"/>
      <point x="386" y="1027" type="line" smooth="yes"/>
      <point x="386" y="870.3333333333334"/>
      <point x="316.0" y="649.0"/>
      <point x="248" y="649" type="qcurve" smooth="yes"/>
      <point x="180.0" y="649.0"/>
      <point x="110" y="870.3333333333334"/>
      <point x="110" y="1027" type="qcurve" smooth="yes"/>
    </contour>
  </outline>
</glyph>
<glyph name="guillemetright" format="1">
  <advance width="614"/>
  <unicode hex="00BB"/>
  <outline>
    <contour>
      <point x="108" y="204" type="line"/>
      <point x="337" y="592" type="line"/>
      <point x="337" y="612" type="line"/>
      <point x="108" y="1000" type="line"/>
      <point x="66" y="1000" type="line"/>
      <point x="273" y="602" type="line"/>
      <point x="66" y="204" type="line"/>
    </contour>
    <contour>
      <point x="313" y="204" type="line"/>
      <point x="542" y="592" type="line"/>
      <point x="542" y="612" type="line"/>
      <point x="313" y="1000" type="line"/>
      <point x="271" y="1000" type="line"/>
      <point x="478" y="602" type="line"/>
      <point x="271" y="204" type="line"/>
    </contour>
  </outline>
</glyph>
<glyph name="AE" format="1">
  <advance width="1091"/>
  <unicode hex="00C6"/>
  <outline>
    <contour>
      <point x="-60" y="0" type="line"/>
      <point x="-15" y="0" type="line"/>
      <point x="543" y="1335" type="line"/>
      <point x="553" y="1335" type="line"/>
      <point x="553" y="0" type="line"/>
      <point x="1023" y="0" type="line"/>
      <point x="1023" y="50" type="line"/>
      <point x="603" y="50" type="line"/>
      <point x="603" y="726" type="line"/>
      <point x="946" y="726" type="line"/>
      <point x="946" y="776" type="line"/>
      <point x="603" y="776" type="line"/>
      <point x="603" y="1406" type="line"/>
      <point x="1015" y="1406" type="line"/>
      <point x="1015" y="1456" type="line"/>
      <point x="532" y="1456" type="line"/>
    </contour>
    <contour>
      <point x="145" y="448" type="line"/>
      <point x="556" y="448" type="line"/>
      <point x="556" y="498" type="line"/>
      <point x="150" y="498" type="line"/>
    </contour>
  </outline>
</glyph>
<glyph name="Eth" format="1">
  <advance width="776.0"/>
  <unicode hex="00D0"/>
  <outline>
    <contour>
      <point x="170" y="0" type="line"/>
      <point x="332" y="0" type="line" smooth="yes"/>
      <point x="502" y="0"/>
      <point x="706" y="366"/>
      <point x="706" y="682" type="qcurve" smooth="yes"/>
      <point x="706" y="774" type="line" smooth="yes"/>
      <point x="706" y="1090"/>
      <point x="502" y="1456"/>
      <point x="332" y="1456" type="qcurve" smooth="yes"/>
      <point x="170" y="1456" type="line"/>
    </contour>
    <contour>
      <point x="224" y="50" type="line"/>
      <point x="224" y="1406" type="line"/>
      <point x="332" y="1406" type="line" smooth="yes"/>
      <point x="478" y="1406"/>
      <point x="651" y="1070"/>
      <point x="651" y="774" type="qcurve" smooth="yes"/>
      <point x="651" y="682" type="line" smooth="yes"/>
      <point x="651" y="386"/>
      <point x="478" y="50"/>
      <point x="332" y="50" type="qcurve" smooth="yes"/>
    </contour>
    <contour>
      <point x="72" y="754" type="line"/>
      <point x="72" y="704" type="line"/>
      <point x="431" y="704" type="line"/>
      <point x="431" y="754" type="line"/>
    </contour>
  </outline>
</glyph>
<glyph name="multiply" format="1">
  <advance width="1170"/>
  <unicode hex="00D7"/>
  <outline>
    <contour>
      <point x="291" y="407" type="line"/>
      <point x="325" y="369" type="line"/>
      <point x="879" y="943" type="line"/>
      <point x="845" y="981" type="line"/>
    </contour>
    <contour>
      <point x="291" y="941" type="line"/>
      <point x="844" y="369" type="line"/>
      <point x="879" y="409" type="line"/>
      <point x="326" y="981" type="line"/>
    </contour>
  </outline>
</glyph>
<glyph name="Oslash" format="1">
  <advance width="875"/>
  <unicode hex="00D8"/>
  <outline>
    <contour>
      <point x="33" y="-80" type="line"/>
      <point x="81" y="-80" type="line"/>
      <point x="190" y="150" type="line"/>
      <point x="190" y="150" type="line"/>
      <point x="461" y="726" type="line"/>
      <point x="413" y="726" type="line"/>
      <point x="189" y="250" type="line"/>
      <point x="191" y="250" type="line"/>
    </contour>
    <contour>
      <point x="413" y="726" type="line"/>
      <point x="461" y="726" type="line"/>
      <point x="686" y="1202" type="line"/>
      <point x="685" y="1202" type="line"/>
      <point x="842" y="1532" type="line"/>
      <point x="793" y="1532" type="line"/>
      <point x="684" y="1302" type="line"/>
      <point x="683" y="1302" type="line"/>
    </contour>
    <contour>
      <point x="115" y="682" type="line" smooth="yes"/>
      <point x="115" y="346"/>
      <point x="294" y="-30"/>
      <point x="438" y="-30" type="qcurve" smooth="yes"/>
      <point x="582" y="-30"/>
      <point x="760" y="346"/>
      <point x="760" y="682" type="qcurve" smooth="yes"/>
      <point x="760" y="774" type="line" smooth="yes"/>
      <point x="760" y="1110"/>
      <point x="582" y="1486"/>
      <point x="438" y="1486" type="qcurve" smooth="yes"/>
      <point x="294" y="1486"/>
      <point x="115" y="1110"/>
      <point x="115" y="774" type="qcurve" smooth="yes"/>
    </contour>
    <contour>
      <point x="170" y="682" type="qcurve" smooth="yes"/>
      <point x="170" y="774" type="line" smooth="yes"/>
      <point x="170" y="1090"/>
      <point x="316" y="1436"/>
      <point x="438" y="1436" type="qcurve" smooth="yes"/>
      <point x="559" y="1436"/>
      <point x="705" y="1090"/>
      <point x="705" y="774" type="qcurve" smooth="yes"/>
      <point x="705" y="682" type="line" smooth="yes"/>
      <point x="705" y="366"/>
      <point x="560" y="20"/>
      <point x="438" y="20" type="qcurve" smooth="yes"/>
      <point x="316" y="20"/>
      <point x="170" y="366"/>
    </contour>
  </outline>
</glyph>
<glyph name="Thorn" format="1">
  <advance width="730"/>
  <unicode hex="00DE"/>
  <outline>
    <contour>
      <point x="170" y="0" type="line"/>
      <point x="224" y="0" type="line"/>
      <point x="224" y="317" type="line"/>
      <point x="353" y="317" type="line" smooth="yes"/>
      <point x="498" y="317"/>
      <point x="630" y="553"/>
      <point x="630" y="735" type="qcurve" smooth="yes"/>
      <point x="630" y="917"/>
      <point x="498" y="1153"/>
      <point x="353" y="1153" type="qcurve" smooth="yes"/>
      <point x="224" y="1153" type="line"/>
      <point x="224" y="1456" type="line"/>
      <point x="170" y="1456" type="line"/>
    </contour>
    <contour>
      <point x="224" y="367" type="line"/>
      <point x="224" y="1103" type="line"/>
      <point x="353" y="1103" type="line" smooth="yes"/>
      <point x="476" y="1103"/>
      <point x="575" y="893"/>
      <point x="575" y="735" type="qcurve" smooth="yes"/>
      <point x="575" y="577"/>
      <point x="476" y="367"/>
      <point x="353" y="367" type="qcurve" smooth="yes"/>
    </contour>
  </outline>
</glyph>
<glyph name="ae" format="1">
  <advance width="937"/>
  <unicode hex="00E6"/>
  <outline>
    <contour>
      <point x="90" y="280" type="qcurve" smooth="yes"/>
      <point x="90" y="130"/>
      <point x="170" y="-20"/>
      <point x="248" y="-20" type="qcurve" smooth="yes"/>
      <point x="314" y="-20"/>
      <point x="437" y="107"/>
      <point x="473" y="217" type="qcurve"/>
      <point x="499" y="102"/>
      <point x="609" y="-30"/>
      <point x="690" y="-30" type="qcurve" smooth="yes"/>
      <point x="759" y="-30"/>
      <point x="851" y="58"/>
      <point x="880" y="120" type="qcurve"/>
      <point x="832" y="155" type="line"/>
      <point x="799" y="90"/>
      <point x="736" y="20"/>
      <point x="690" y="20" type="qcurve" smooth="yes"/>
      <point x="588" y="20"/>
      <point x="491" y="302"/>
      <point x="491" y="510" type="qcurve" smooth="yes"/>
      <point x="491" y="542" type="line" smooth="yes"/>
      <point x="491" y="750"/>
      <point x="587" y="1032"/>
      <point x="680" y="1032" type="qcurve" smooth="yes"/>
      <point x="758" y="1032"/>
      <point x="824" y="770"/>
      <point x="824" y="600" type="qcurve"/>
      <point x="824" y="582" type="line"/>
      <point x="462" y="582" type="line"/>
      <point x="462" y="534" type="line"/>
      <point x="873" y="534" type="line"/>
      <point x="873" y="560" type="line" smooth="yes"/>
      <point x="873" y="800"/>
      <point x="773" y="1082"/>
      <point x="680" y="1082" type="qcurve" smooth="yes"/>
      <point x="614" y="1082"/>
      <point x="512" y="971"/>
      <point x="480" y="860" type="qcurve"/>
      <point x="464" y="978"/>
      <point x="374" y="1082"/>
      <point x="306" y="1082" type="qcurve" smooth="yes"/>
      <point x="221" y="1082"/>
      <point x="139" y="900"/>
      <point x="139" y="770" type="qcurve" smooth="yes"/>
      <point x="139" y="765" type="line"/>
      <point x="189" y="765" type="line"/>
      <point x="189" y="770" type="line" smooth="yes"/>
      <point x="189" y="874"/>
      <point x="241" y="1032"/>
      <point x="303" y="1032" type="qcurve" smooth="yes"/>
      <point x="376" y="1032"/>
      <point x="437" y="860"/>
      <point x="437" y="720" type="qcurve" smooth="yes"/>
      <point x="437" y="598" type="line"/>
      <point x="285" y="598" type="line" smooth="yes"/>
      <point x="199" y="598"/>
      <point x="90" y="425"/>
    </contour>
    <contour>
      <point x="144" y="280" type="qcurve" smooth="yes"/>
      <point x="144" y="400"/>
      <point x="223" y="548"/>
      <point x="300" y="548" type="qcurve" smooth="yes"/>
      <point x="437" y="548" type="line"/>
      <point x="437" y="330" type="line"/>
      <point x="437" y="220"/>
      <point x="320" y="30"/>
      <point x="248" y="30" type="qcurve" smooth="yes"/>
      <point x="194" y="30"/>
      <point x="144" y="160"/>
    </contour>
  </outline>
</glyph>
<glyph name="thorn" format="1">
  <advance width="668"/>
  <unicode hex="00FE"/>
  <outline>
    <contour>
      <point x="148" y="-416" type="line"/>
      <point x="202" y="-416" type="line"/>
      <point x="202" y="81" type="line"/>
      <point x="241" y="31"/>
      <point x="319" y="-20"/>
      <point x="359" y="-20" type="qcurve" smooth="yes"/>
      <point x="469" y="-20"/>
      <point x="583" y="280"/>
      <point x="583" y="510" type="qcurve" smooth="yes"/>
      <point x="583" y="542" type="line" smooth="yes"/>
      <point x="583" y="772"/>
      <point x="469" y="1072"/>
      <point x="359" y="1072" type="qcurve" smooth="yes"/>
      <point x="321" y="1072"/>
      <point x="240" y="1015"/>
      <point x="202" y="958" type="qcurve"/>
      <point x="202" y="1536" type="line"/>
      <point x="148" y="1536" type="line"/>
    </contour>
    <contour>
      <point x="202" y="212" type="qcurve"/>
      <point x="202" y="840" type="line"/>
      <point x="225" y="910"/>
      <point x="301" y="1022"/>
      <point x="359" y="1022" type="qcurve" smooth="yes"/>
      <point x="447" y="1022"/>
      <point x="529" y="745"/>
      <point x="529" y="542" type="qcurve" smooth="yes"/>
      <point x="529" y="510" type="line" smooth="yes"/>
      <point x="529" y="307"/>
      <point x="447" y="30"/>
      <point x="359" y="30" type="qcurve" smooth="yes"/>
      <point x="301" y="30"/>
      <point x="225" y="142"/>
    </contour>
  </outline>
</glyph>
<glyph name="OE" format="1">
  <advance width="1186"/>
  <unicode hex="0152"/>
  <outline>
    <contour>
      <point x="115" y="682" type="line" smooth="yes"/>
      <point x="115" y="346"/>
      <point x="296" y="-30"/>
      <point x="438" y="-30" type="qcurve" smooth="yes"/>
      <point x="500" y="-30"/>
      <point x="621" y="36"/>
      <point x="654" y="98" type="qcurve"/>
      <point x="654" y="172" type="line"/>
      <point x="620" y="106"/>
      <point x="511" y="20"/>
      <point x="438" y="20" type="qcurve" smooth="yes"/>
      <point x="317" y="20"/>
      <point x="170" y="373"/>
      <point x="170" y="682" type="qcurve" smooth="yes"/>
      <point x="170" y="774" type="line" smooth="yes"/>
      <point x="170" y="1083"/>
      <point x="317" y="1436"/>
      <point x="438" y="1436" type="qcurve" smooth="yes"/>
      <point x="511" y="1436"/>
      <point x="620" y="1350"/>
      <point x="654" y="1284" type="qcurve"/>
      <point x="654" y="1358" type="line"/>
      <point x="621" y="1420"/>
      <point x="500" y="1486"/>
      <point x="438" y="1486" type="qcurve" smooth="yes"/>
      <point x="296" y="1486"/>
      <point x="115" y="1110"/>
      <point x="115" y="774" type="qcurve" smooth="yes"/>
    </contour>
    <contour>
      <point x="648" y="0" type="line"/>
      <point x="1118" y="0" type="line"/>
      <point x="1118" y="50" type="line"/>
      <point x="702" y="50" type="line"/>
      <point x="702" y="726" type="line"/>
      <point x="1041" y="726" type="line"/>
      <point x="1041" y="776" type="line"/>
      <point x="702" y="776" type="line"/>
      <point x="702" y="1406" type="line"/>
      <point x="1110" y="1406" type="line"/>
      <point x="1110" y="1456" type="line"/>
      <point x="648" y="1456" type="line"/>
    </contour>
  </outline>
</glyph>
<glyph name="Germandbls" format="1">
  <advance width="806"/>
  <unicode hex="1E9E"/>
  <outline>
    <contour>
      <point x="170" y="0" type="line"/>
      <point x="224" y="0" type="line"/>
      <point x="224" y="1040" type="line" smooth="yes"/>
      <point x="224" y="1236.595744680851"/>
      <point x="328.27272727272725" y="1436.0"/>
      <point x="407" y="1436" type="qcurve" smooth="yes"/>
      <point x="492.0" y="1436.0"/>
      <point x="580.0063719186951" y="1249.9089725900699"/>
      <point x="577" y="1090" type="qcurve"/>
      <point x="360" y="760" type="line"/>
      <point x="369" y="700" type="line"/>
      <point x="507.27953630471643" y="670.8111149006463"/>
      <point x="642" y="520.0"/>
      <point x="642" y="400" type="qcurve" smooth="yes"/>
      <point x="642" y="360" type="line" smooth="yes"/>
      <point x="642" y="203.0"/>
      <point x="528.2007874015749" y="30.0"/>
      <point x="437" y="30" type="qcurve" smooth="yes"/>
      <point x="407.0" y="30.0"/>
      <point x="337.27874042732384" y="43.94639607166849"/>
      <point x="317" y="49" type="qcurve"/>
      <point x="318" y="-4" type="line"/>
      <point x="341.4312849172818" y="-9.405214152880294"/>
      <point x="412.1020408163265" y="-20.0"/>
      <point x="445" y="-20" type="qcurve" smooth="yes"/>
      <point x="560.632183908046" y="-20.0"/>
      <point x="696" y="193"/>
      <point x="696" y="360" type="qcurve" smooth="yes"/>
      <point x="696" y="400" type="line" smooth="yes"/>
      <point x="696" y="538"/>
      <point x="540" y="715"/>
      <point x="399" y="745" type="qcurve"/>
      <point x="399" y="750" type="line"/>
      <point x="623" y="1080" type="line"/>
      <point x="623" y="1100" type="line" smooth="yes"/>
      <point x="623" y="1267.0192307692307"/>
      <point x="507.0210970464135" y="1486.0"/>
      <point x="407" y="1486" type="qcurve" smooth="yes"/>
      <point x="303" y="1486"/>
      <point x="170" y="1260"/>
      <point x="170" y="1040" type="qcurve" smooth="yes"/>
    </contour>
  </outline>
</glyph>
<glyph name="quotesinglbase" format="1">
  <advance width="332"/>
  <unicode hex="201A"/>
  <outline>
    <contour>
      <point x="96" y="-114" type="qcurve"/>
      <point x="146" y="-142" type="line"/>
      <point x="178" y="-102"/>
      <point x="212" y="-6"/>
      <point x="212" y="60" type="qcurve" smooth="yes"/>
      <point x="212" y="132" type="line"/>
      <point x="140" y="132" type="line"/>
      <point x="140" y="60" type="line" smooth="yes"/>
      <point x="140" y="6"/>
      <point x="118" y="-76"/>
    </contour>
  </outline>
</glyph>
<glyph name="quotedblright" format="1">
  <advance width="604"/>
  <unicode hex="201D"/>
  <outline>
    <contour>
      <point x="96" y="1210" type="qcurve"/>
      <point x="146" y="1182" type="line"/>
      <point x="178" y="1222"/>
      <point x="212" y="1318"/>
      <point x="212" y="1384" type="qcurve" smooth="yes"/>
      <point x="212" y="1456" type="line"/>
      <point x="140" y="1456" type="line"/>
      <point x="140" y="1384" type="line" smooth="yes"/>
      <point x="140" y="1330"/>
      <point x="118" y="1248"/>
    </contour>
    <contour>
      <point x="368" y="1210" type="qcurve"/>
      <point x="418" y="1182" type="line"/>
      <point x="450" y="1222"/>
      <point x="484" y="1318"/>
      <point x="484" y="1384" type="qcurve" smooth="yes"/>
      <point x="484" y="1456" type="line"/>
      <point x="412" y="1456" type="line"/>
      <point x="412" y="1384" type="line" smooth="yes"/>
      <point x="412" y="1330"/>
      <point x="390" y="1248"/>
    </contour>
  </outline>
</glyph>
<glyph name="quotedblbase" format="1">
  <advance width="604"/>
  <unicode hex="201E"/>
  <outline>
    <contour>
      <point x="96" y="-114" type="qcurve"/>
      <point x="146" y="-142" type="line"/>
      <point x="178" y="-102"/>
      <point x="212" y="-6"/>
      <point x="212" y="60" type="qcurve" smooth="yes"/>
      <point x="212" y="132" type="line"/>
      <point x="140" y="132" type="line"/>
      <point x="140" y="60" type="line" smooth="yes"/>
      <point x="140" y="6"/>
      <point x="118" y="-76"/>
    </contour>
    <contour>
      <point x="368" y="-114" type="qcurve"/>
      <point x="418" y="-142" type="line"/>
      <point x="450" y="-102"/>
      <point x="484" y="-6"/>
      <point x="484" y="60" type="qcurve" smooth="yes"/>
      <point x="484" y="132" type="line"/>
      <point x="412" y="132" type="line"/>
      <point x="412" y="60" type="line" smooth="yes"/>
      <point x="412" y="6"/>
      <point x="390" y="-76"/>
    </contour>
  </outline>
</glyph>
<glyph name="bullet" format="1">
  <advance width="528"/>
  <unicode hex="2022"/>
  <outline>
    <contour>
      <point x="164" y="742" type="line" smooth="yes"/>
      <point x="164" y="690"/>
      <point x="220" y="624"/>
      <point x="264" y="624" type="qcurve" smooth="yes"/>
      <point x="308" y="624"/>
      <point x="364" y="690"/>
      <point x="364" y="742" type="qcurve" smooth="yes"/>
      <point x="364" y="766" type="line" smooth="yes"/>
      <point x="364" y="818"/>
      <point x="308" y="884"/>
      <point x="264" y="884" type="qcurve" smooth="yes"/>
      <point x="220" y="884"/>
      <point x="164" y="818"/>
      <point x="164" y="766" type="qcurve" smooth="yes"/>
    </contour>
  </outline>
</glyph>
<glyph name="perthousand" format="1">
  <advance width="1328"/>
  <unicode hex="2030"/>
  <outline>
    <contour>
      <point x="70" y="936" type="line" smooth="yes"/>
      <point x="70" y="803.0"/>
      <point x="139.3030303030303" y="660.0"/>
      <point x="202" y="660" type="qcurve" smooth="yes"/>
      <point x="265.69696969696975" y="660.0"/>
      <point x="335" y="803.0"/>
      <point x="335" y="936" type="qcurve" smooth="yes"/>
      <point x="335" y="1200" type="line" smooth="yes"/>
      <point x="335" y="1333.0"/>
      <point x="265.69696969696975" y="1476.0"/>
      <point x="202" y="1476" type="qcurve" smooth="yes"/>
      <point x="139.3030303030303" y="1476.0"/>
      <point x="70" y="1333.0"/>
      <point x="70" y="1200" type="qcurve" smooth="yes"/>
    </contour>
    <contour>
      <point x="120" y="926" type="qcurve" smooth="yes"/>
      <point x="120" y="1210" type="line" smooth="yes"/>
      <point x="120" y="1311.0"/>
      <point x="160.75" y="1428.0"/>
      <point x="202" y="1428" type="qcurve" smooth="yes"/>
      <point x="244.25" y="1428.0"/>
      <point x="285" y="1311.0"/>
      <point x="285" y="1210" type="qcurve" smooth="yes"/>
      <point x="285" y="926" type="line" smooth="yes"/>
      <point x="285" y="825.0"/>
      <point x="244.25" y="708.0"/>
      <point x="202" y="708" type="qcurve" smooth="yes"/>
      <point x="160.75" y="708.0"/>
      <point x="120" y="825.0"/>
    </contour>
    <contour>
      <point x="112" y="28" type="line"/>
      <point x="158" y="0" type="line"/>
      <point x="867" y="1442" type="line"/>
      <point x="815" y="1456" type="line"/>
    </contour>
    <contour>
      <point x="638" y="256" type="line" smooth="yes"/>
      <point x="638" y="123"/>
      <point x="707" y="-20"/>
      <point x="770" y="-20" type="qcurve" smooth="yes"/>
      <point x="834" y="-20"/>
      <point x="903" y="123"/>
      <point x="903" y="256" type="qcurve" smooth="yes"/>
      <point x="903" y="520" type="line" smooth="yes"/>
      <point x="903" y="653"/>
      <point x="834" y="796"/>
      <point x="770" y="796" type="qcurve" smooth="yes"/>
      <point x="707" y="796"/>
      <point x="638" y="653"/>
      <point x="638" y="520" type="qcurve" smooth="yes"/>
    </contour>
    <contour>
      <point x="688" y="246" type="qcurve" smooth="yes"/>
      <point x="688" y="530" type="line" smooth="yes"/>
      <point x="688" y="631"/>
      <point x="729" y="748"/>
      <point x="770" y="748" type="qcurve" smooth="yes"/>
      <point x="812" y="748"/>
      <point x="853" y="631"/>
      <point x="853" y="530" type="qcurve" smooth="yes"/>
      <point x="853" y="246" type="line" smooth="yes"/>
      <point x="853" y="145"/>
      <point x="812" y="28"/>
      <point x="770" y="28" type="qcurve" smooth="yes"/>
      <point x="729" y="28"/>
      <point x="688" y="145"/>
    </contour>
    <contour>
      <point x="993" y="256" type="line" smooth="yes"/>
      <point x="993" y="123"/>
      <point x="1062" y="-20"/>
      <point x="1125" y="-20" type="qcurve" smooth="yes"/>
      <point x="1189" y="-20"/>
      <point x="1258" y="123"/>
      <point x="1258" y="256" type="qcurve" smooth="yes"/>
      <point x="1258" y="520" type="line" smooth="yes"/>
      <point x="1258" y="653"/>
      <point x="1189" y="796"/>
      <point x="1125" y="796" type="qcurve" smooth="yes"/>
      <point x="1062" y="796"/>
      <point x="993" y="653"/>
      <point x="993" y="520" type="qcurve" smooth="yes"/>
    </contour>
    <contour>
      <point x="1043" y="246" type="qcurve" smooth="yes"/>
      <point x="1043" y="530" type="line" smooth="yes"/>
      <point x="1043" y="631"/>
      <point x="1084" y="748"/>
      <point x="1125" y="748" type="qcurve" smooth="yes"/>
      <point x="1167" y="748"/>
      <point x="1208" y="631"/>
      <point x="1208" y="530" type="qcurve" smooth="yes"/>
      <point x="1208" y="246" type="line" smooth="yes"/>
      <point x="1208" y="145"/>
      <point x="1167" y="28"/>
      <point x="1125" y="28" type="qcurve" smooth="yes"/>
      <point x="1084" y="28"/>
      <point x="1043" y="145"/>
    </contour>
  </outline>
</glyph>
<glyph name="guilsinglright" format="1">
  <advance width="409"/>
  <unicode hex="203A"/>
  <outline>
    <contour>
      <point x="108" y="204" type="line"/>
      <point x="337" y="592" type="line"/>
      <point x="337" y="612" type="line"/>
      <point x="108" y="1000" type="line"/>
      <point x="66" y="1000" type="line"/>
      <point x="273" y="602" type="line"/>
      <point x="66" y="204" type="line"/>
    </contour>
  </outline>
</glyph>
<glyph name="Euro" format="1">
  <advance width="608"/>
  <unicode hex="20AC"/>
  <outline>
    <contour>
      <point x="135" y="642" type="line" smooth="yes"/>
      <point x="135" y="316"/>
      <point x="266" y="-30"/>
      <point x="382" y="-30" type="qcurve" smooth="yes"/>
      <point x="479" y="-30"/>
      <point x="578" y="219"/>
      <point x="578" y="396" type="qcurve" smooth="yes"/>
      <point x="578" y="406" type="line"/>
      <point x="526" y="406" type="line"/>
      <point x="526" y="396" type="line" smooth="yes"/>
      <point x="526" y="238"/>
      <point x="460.75" y="20.0"/>
      <point x="382" y="20" type="qcurve" smooth="yes"/>
      <point x="295.5" y="20.0"/>
      <point x="189" y="316.0"/>
      <point x="189" y="642" type="qcurve" smooth="yes"/>
      <point x="189" y="814" type="line" smooth="yes"/>
      <point x="189" y="1140.0"/>
      <point x="295.5" y="1436.0"/>
      <point x="382" y="1436" type="qcurve" smooth="yes"/>
      <point x="460.75" y="1436.0"/>
      <point x="526" y="1218"/>
      <point x="526" y="1060" type="qcurve" smooth="yes"/>
      <point x="526" y="1050" type="line"/>
      <point x="578" y="1050" type="line"/>
      <point x="578" y="1060" type="line" smooth="yes"/>
      <point x="578" y="1237"/>
      <point x="479" y="1486"/>
      <point x="382" y="1486" type="qcurve" smooth="yes"/>
      <point x="266" y="1486"/>
      <point x="135" y="1140"/>
      <point x="135" y="814" type="qcurve" smooth="yes"/>
    </contour>
    <contour>
      <point x="30" y="592" type="line"/>
      <point x="517" y="592" type="line"/>
      <point x="517" y="642" type="line"/>
      <point x="30" y="642" type="line"/>
    </contour>
    <contour>
      <point x="30" y="814" type="line"/>
      <point x="517" y="814" type="line"/>
      <point x="517" y="864" type="line"/>
      <point x="30" y="864" type="line"/>
    </contour>
  </outline>
</glyph>
<glyph name="indianrupee" format="1">
  <advance width="737"/>
  <unicode hex="20B9"/>
  <outline>
    <contour>
      <point x="77" y="594" type="line"/>
      <point x="512" y="0" type="line"/>
      <point x="578" y="0" type="line"/>
      <point x="143" y="594" type="line"/>
      <point x="270" y="594" type="line" smooth="yes"/>
      <point x="408" y="594"/>
      <point x="539" y="834"/>
      <point x="539" y="1028" type="qcurve" smooth="yes"/>
      <point x="539" y="1162"/>
      <point x="457" y="1360"/>
      <point x="392" y="1406" type="qcurve"/>
      <point x="679" y="1406" type="line"/>
      <point x="681" y="1456" type="line"/>
      <point x="82" y="1456" type="line"/>
      <point x="80" y="1406" type="line"/>
      <point x="230" y="1406" type="line" smooth="yes"/>
      <point x="371.62857142857143" y="1406"/>
      <point x="485.0" y="1188.0"/>
      <point x="485" y="1028" type="qcurve" smooth="yes"/>
      <point x="485.0" y="868.0"/>
      <point x="371.62857142857143" y="644"/>
      <point x="230" y="644" type="qcurve" smooth="yes"/>
      <point x="79" y="644" type="line"/>
    </contour>
    <contour>
      <point x="98" y="1000" type="line"/>
      <point x="667" y="1000" type="line"/>
      <point x="669" y="1050" type="line"/>
      <point x="100" y="1050" type="line"/>
    </contour>
  </outline>
</glyph>
<glyph name="trademark" format="1">
  <advance width="1205"/>
  <unicode hex="2122"/>
  <outline>
    <contour>
      <point x="276" y="820" type="line"/>
      <point x="326" y="820" type="line"/>
      <point x="326" y="1408" type="line"/>
      <point x="460" y="1408" type="line"/>
      <point x="460" y="1456" type="line"/>
      <point x="141" y="1456" type="line"/>
      <point x="141" y="1408" type="line"/>
      <point x="276" y="1408" type="line"/>
    </contour>
    <contour>
      <point x="513" y="820" type="line"/>
      <point x="563" y="820" type="line"/>
      <point x="563" y="1243" type="line"/>
      <point x="689" y="820" type="line"/>
      <point x="751" y="820" type="line"/>
      <point x="875" y="1245" type="line"/>
      <point x="875" y="820" type="line"/>
      <point x="925" y="820" type="line"/>
      <point x="925" y="1456" type="line"/>
      <point x="861" y="1456" type="line"/>
      <point x="720" y="975" type="line"/>
      <point x="579" y="1456" type="line"/>
      <point x="513" y="1456" type="line"/>
    </contour>
  </outline>
</glyph>
<glyph name="fi" format="1">
  <advance width="612"/>
  <unicode hex="FB01"/>
  <outline>
    <contour>
      <point x="153" y="0" type="line"/>
      <point x="207" y="0" type="line"/>
      <point x="207" y="1022" type="line"/>
      <point x="207" y="1032" type="line"/>
      <point x="207" y="1200" type="line" smooth="yes"/>
      <point x="207" y="1355.0"/>
      <point x="265" y="1510"/>
      <point x="324" y="1510" type="qcurve" smooth="yes"/>
      <point x="355" y="1510"/>
      <point x="406" y="1483"/>
      <point x="426" y="1470" type="qcurve"/>
      <point x="444" y="1510" type="line"/>
      <point x="417" y="1530"/>
      <point x="357" y="1556"/>
      <point x="324" y="1556" type="qcurve" smooth="yes"/>
      <point x="244" y="1556"/>
      <point x="153" y="1374"/>
      <point x="153" y="1200" type="qcurve" smooth="yes"/>
    </contour>
    <contour>
      <point x="25" y="1002" type="line"/>
      <point x="339" y="1002" type="line"/>
      <point x="339" y="1052" type="line"/>
      <point x="156" y="1052" type="line"/>
      <point x="158" y="1052" type="line"/>
      <point x="25" y="1052" type="line"/>
    </contour>
    <contour>
      <point x="418" y="0" type="line"/>
      <point x="472" y="0" type="line"/>
      <point x="472" y="1052" type="line"/>
      <point x="418" y="1052" type="line"/>
    </contour>
  </outline>
</glyph>
<glyph name="fl" format="1">
  <advance width="651"/>
  <unicode hex="FB02"/>
  <outline>
    <contour>
      <point x="153" y="0" type="line"/>
      <point x="207" y="0" type="line"/>
      <point x="207" y="1022" type="line"/>
      <point x="207" y="1032" type="line"/>
      <point x="207" y="1200" type="line" smooth="yes"/>
      <point x="207" y="1355"/>
      <point x="265" y="1510"/>
      <point x="324" y="1510" type="qcurve" smooth="yes"/>
      <point x="378" y="1510"/>
      <point x="471" y="1473"/>
      <point x="504" y="1452" type="qcurve"/>
      <point x="524" y="1496" type="line"/>
      <point x="483" y="1520"/>
      <point x="379" y="1556"/>
      <point x="324" y="1556" type="qcurve" smooth="yes"/>
      <point x="244" y="1556"/>
      <point x="153" y="1374"/>
      <point x="153" y="1200" type="qcurve" smooth="yes"/>
    </contour>
    <contour>
      <point x="25" y="1002" type="line"/>
      <point x="339" y="1002" type="line"/>
      <point x="339" y="1052" type="line"/>
      <point x="156" y="1052" type="line"/>
      <point x="158" y="1052" type="line"/>
      <point x="25" y="1052" type="line"/>
    </contour>
    <contour>
      <point x="440" y="0" type="line"/>
      <point x="494" y="0" type="line"/>
      <point x="494" y="1496" type="line"/>
      <point x="440" y="1496" type="line"/>
    </contour>
  </outline>
</glyph>
<glyph name="one.pnum" format="1">
  <advance width="1274"/>
  <outline>
    <contour>
      <point x="620" y="0" type="line"/>
      <point x="674" y="0" type="line"/>
      <point x="674" y="1476" type="line"/>
      <point x="652" y="1476" type="line"/>
      <point x="392" y="1355" type="line"/>
      <point x="392" y="1300" type="line"/>
      <point x="620" y="1388" type="line"/>
    </contour>
  </outline>
</glyph>
<glyph name="seven.pnum" format="1">
  <advance width="1126"/>
  <outline>
    <contour>
      <point x="343" y="0" type="line"/>
      <point x="405" y="0" type="line"/>
      <point x="863" y="1402" type="line"/>
      <point x="863" y="1456" type="line"/>
      <point x="236" y="1456" type="line"/>
      <point x="236" y="1402" type="line"/>
      <point x="811" y="1402" type="line"/>
    </contour>
  </outline>
</glyph>
<glyph name="six.pnum" format="1">
  <advance width="920"/>
  <outline>
    <contour>
      <point x="222" y="614" type="line" smooth="yes"/>
      <point x="222" y="274.0"/>
      <point x="370" y="-30"/>
      <point x="472" y="-30" type="qcurve" smooth="yes"/>
      <point x="575" y="-30"/>
      <point x="699.0" y="244.0"/>
      <point x="699" y="464" type="qcurve" smooth="yes"/>
      <point x="699.0" y="666.1138211382113"/>
      <point x="577" y="916"/>
      <point x="472" y="916" type="qcurve" smooth="yes"/>
      <point x="380" y="916"/>
      <point x="241" y="660"/>
      <point x="241" y="464" type="qcurve"/>
      <point x="271" y="464" type="line"/>
      <point x="271" y="630"/>
      <point x="393" y="866"/>
      <point x="472" y="866" type="qcurve" smooth="yes"/>
      <point x="554" y="866"/>
      <point x="645.0" y="656.5748502994013"/>
      <point x="645" y="464" type="qcurve" smooth="yes"/>
      <point x="645.0" y="252.57142857142858"/>
      <point x="554" y="20"/>
      <point x="472" y="20" type="qcurve" smooth="yes"/>
      <point x="388" y="20"/>
      <point x="277" y="285.00840336134456"/>
      <point x="277" y="604" type="qcurve" smooth="yes"/>
      <point x="277" y="654" type="line" smooth="yes"/>
      <point x="277" y="1020"/>
      <point x="444" y="1436"/>
      <point x="582" y="1436" type="qcurve" smooth="yes"/>
      <point x="597" y="1436" type="line"/>
      <point x="597" y="1486" type="line"/>
      <point x="582" y="1486" type="line" smooth="yes"/>
      <point x="417" y="1486"/>
      <point x="222" y="1030"/>
      <point x="222" y="644" type="qcurve" smooth="yes"/>
    </contour>
  </outline>
</glyph>
<glyph name="two.pnum" format="1">
  <advance width="966"/>
  <outline>
    <contour>
      <point x="280" y="0" type="line"/>
      <point x="720" y="0" type="line"/>
      <point x="720" y="50" type="line"/>
      <point x="306" y="50" type="line"/>
      <point x="600" y="721" type="line" smooth="yes"/>
      <point x="671" y="892"/>
      <point x="705" y="1048"/>
      <point x="705" y="1140" type="qcurve" smooth="yes"/>
      <point x="705" y="1301"/>
      <point x="601" y="1486"/>
      <point x="506" y="1486" type="qcurve" smooth="yes"/>
      <point x="411" y="1486"/>
      <point x="286" y="1257"/>
      <point x="286" y="1030" type="qcurve" smooth="yes"/>
      <point x="286" y="1020" type="line"/>
      <point x="341" y="1020" type="line"/>
      <point x="341" y="1030" type="line" smooth="yes"/>
      <point x="341" y="1249"/>
      <point x="437" y="1436"/>
      <point x="506" y="1436" type="qcurve" smooth="yes"/>
      <point x="575" y="1436"/>
      <point x="650" y="1280"/>
      <point x="650" y="1130" type="qcurve" smooth="yes"/>
      <point x="650" y="1032"/>
      <point x="590" y="857"/>
      <point x="547" y="738" type="qcurve" smooth="yes"/>
      <point x="280" y="50" type="line"/>
    </contour>
  </outline>
</glyph>
<glyph name="zero.pnum" format="1">
  <advance width="920"/>
  <outline>
    <contour>
      <point x="249" y="350" type="line" smooth="yes"/>
      <point x="249" y="184"/>
      <point x="357" y="-30"/>
      <point x="460" y="-30" type="qcurve" smooth="yes"/>
      <point x="563" y="-30"/>
      <point x="671" y="184"/>
      <point x="671" y="350" type="qcurve" smooth="yes"/>
      <point x="671" y="1106" type="line" smooth="yes"/>
      <point x="671" y="1276"/>
      <point x="563" y="1486"/>
      <point x="460" y="1486" type="qcurve" smooth="yes"/>
      <point x="357" y="1486"/>
      <point x="249" y="1276"/>
      <point x="249" y="1106" type="qcurve" smooth="yes"/>
    </contour>
    <contour>
      <point x="305" y="340" type="qcurve" smooth="yes"/>
      <point x="305" y="1116" type="line" smooth="yes"/>
      <point x="305" y="1247"/>
      <point x="382" y="1436"/>
      <point x="460" y="1436" type="qcurve" smooth="yes"/>
      <point x="538" y="1436"/>
      <point x="615" y="1247"/>
      <point x="615" y="1116" type="qcurve" smooth="yes"/>
      <point x="615" y="340" type="line" smooth="yes"/>
      <point x="615" y="214"/>
      <point x="538" y="20"/>
      <point x="460" y="20" type="qcurve" smooth="yes"/>
      <point x="382" y="20"/>
      <point x="305" y="214"/>
    </contour>
  </outline>
</glyph>
